<svg id="Calque_1" data-name="Calque 1" xmlns="http://www.w3.org/2000/svg" viewBox="0 0 500 500"><defs><style>.cls-1{fill:#44797b;}.cls-2{fill:#ff7276;}</style></defs><path class="cls-1" d="M340.86,182.63a34.58,34.58,0,0,0-50.92-27.38l-20.07,11.56-57.66,33.28c-.63.41-1.26.76-1.89,1.1a34.56,34.56,0,0,1-16.2,4,32.77,32.77,0,0,1-5.64-.47A34.6,34.6,0,0,1,176.19,141l0,0,17.9-10.31v0l41.19-23.76,15-8.66L203.06,71a17.86,17.86,0,0,0-17.86,0L90.78,125.53A17.86,17.86,0,0,0,81.85,141V272.5A17.86,17.86,0,0,0,99.7,290.36l94.42.07,112.3-64.82,16.48-9.55c.48-.25,1-.53,1.45-.81A34.58,34.58,0,0,0,340.86,182.63Zm-34.44,23.49a20.46,20.46,0,1,1,20.46-20.46A20.45,20.45,0,0,1,306.42,206.12Z"/><path class="cls-1" d="M81.85,430.86V335.47H111.7q15,0,26.17,6.13a43.78,43.78,0,0,1,17.3,16.83A48.55,48.55,0,0,1,161.3,383a49.31,49.31,0,0,1-6.13,24.73,43.51,43.51,0,0,1-17.3,17q-11.19,6.13-26.17,6.14Zm9.82-8.72h20.17a43.18,43.18,0,0,0,20.3-4.7,34.55,34.55,0,0,0,14.11-13.5q5.1-8.79,5.11-20.91t-5.11-20.72a34.61,34.61,0,0,0-14.11-13.42,43.06,43.06,0,0,0-20.3-4.7H91.67Z"/><path class="cls-1" d="M208,432.63q-10.48,0-18-4.9a31.86,31.86,0,0,1-11.45-13.16,42.07,42.07,0,0,1-4-18.46,39.12,39.12,0,0,1,4.36-18.6,32.41,32.41,0,0,1,12.47-13q8.1-4.77,19.28-4.77,10.77,0,18.6,4.77A32.82,32.82,0,0,1,241.5,377.3a37.89,37.89,0,0,1,4.29,18.13v35.43h-9.4V415.32H236A31.52,31.52,0,0,1,220.92,430,30,30,0,0,1,208,432.63Zm2.05-8.18a24.4,24.4,0,0,0,13.49-3.75,26.46,26.46,0,0,0,9.27-10.21,29.93,29.93,0,0,0,3.27-14.66,31.53,31.53,0,0,0-3.14-14.3A24,24,0,0,0,210.5,367.9a25.51,25.51,0,0,0-14,3.75,24.59,24.59,0,0,0-9,10.22,33.17,33.17,0,0,0-3.14,14.65,32.64,32.64,0,0,0,3,14,23.79,23.79,0,0,0,8.79,10.15A25.07,25.07,0,0,0,210.09,424.45Z"/><path class="cls-1" d="M266.78,430.86V390.38A30.41,30.41,0,0,1,271.07,374a29.19,29.19,0,0,1,11.52-10.63,36,36,0,0,1,32,0A29.34,29.34,0,0,1,326,374a30.41,30.41,0,0,1,4.29,16.42v40.48h-9.53V390.79a23.15,23.15,0,0,0-3.14-12.33,21.33,21.33,0,0,0-8.25-7.84,23,23,0,0,0-11-2.72,22.77,22.77,0,0,0-10.77,2.65,21.09,21.09,0,0,0-8.18,7.77,23.44,23.44,0,0,0-3.13,12.47v40.07Z"/><path class="cls-1" d="M381,432.63q-10.5,0-18-4.9a31.93,31.93,0,0,1-11.45-13.16,42.21,42.21,0,0,1-4-18.46,39.12,39.12,0,0,1,4.36-18.6,32.47,32.47,0,0,1,12.47-13q8.11-4.77,19.29-4.77a35.11,35.11,0,0,1,18.6,4.77,33,33,0,0,1,12.13,12.81,37.89,37.89,0,0,1,4.29,18.13v35.43h-9.4V415.32h-.41a31.18,31.18,0,0,1-5.73,8.11,30.47,30.47,0,0,1-9.33,6.61A30,30,0,0,1,381,432.63Zm2-8.18a24.37,24.37,0,0,0,13.49-3.75,26.46,26.46,0,0,0,9.27-10.21,29.93,29.93,0,0,0,3.27-14.66,31.53,31.53,0,0,0-3.13-14.3,24,24,0,0,0-22.49-13.63,25.45,25.45,0,0,0-14,3.75,24.54,24.54,0,0,0-9,10.22,33.17,33.17,0,0,0-3.13,14.65,32.5,32.5,0,0,0,3,14,23.71,23.71,0,0,0,8.78,10.15A25.07,25.07,0,0,0,383,424.45Z"/><path class="cls-2" d="M315.37,71l94.41,54.5A17.86,17.86,0,0,1,418.71,141q0,65.79,0,131.57a17.87,17.87,0,0,1-17.87,17.87H194.12l112.31-64.82,16.48-9.55c.47-.25,1-.53,1.45-.81a34.59,34.59,0,0,0-34.41-60l-20.08,11.56-57.66,33.28c-.63.41-1.26.76-1.89,1.1a34.53,34.53,0,0,1-16.2,4,32.77,32.77,0,0,1-5.64-.47A34.6,34.6,0,0,1,176.19,141l0,0,17.89-10.31L297.51,71A17.81,17.81,0,0,1,315.37,71Z"/></svg>