<svg id="Calque_1" data-name="Calque 1" xmlns="http://www.w3.org/2000/svg" viewBox="0 0 500 500"><defs><style>.cls-1{fill:#f6b285;}.cls-2{fill:#1e1e1c;}.cls-3{fill:#23c6b0;}.cls-4{fill:#f5f5f5;}.cls-5{fill:none;}.cls-6{fill:#ff7276;}</style></defs><path class="cls-1" d="M336.92,169.43V230.3a70.57,70.57,0,0,1-68.85,70.53c-.57,0-1.14,0-1.73,0H229.28c-.59,0-1.16,0-1.73,0a70.56,70.56,0,0,1-68.83-70.53V169.43a46.77,46.77,0,0,1,46.76-46.77h84.66A46.79,46.79,0,0,1,336.92,169.43Z"/><path class="cls-2" d="M266.35,304H229.28c-.61,0-1.21,0-1.8,0-39.63-.95-71.87-34-71.87-73.64V169.43a49.93,49.93,0,0,1,49.87-49.88h84.66A49.94,49.94,0,0,1,340,169.43V230.3c0,39.65-32.25,72.69-71.88,73.64Zm-60.87-178.2a43.71,43.71,0,0,0-43.65,43.66V230.3c0,36.3,29.52,66.54,65.79,67.42l1.66,0h37.07l1.65,0c36.29-.88,65.81-31.12,65.81-67.42V169.43a43.72,43.72,0,0,0-43.67-43.66Z"/><circle class="cls-2" cx="202.22" cy="205.11" r="10.96"/><circle class="cls-2" cx="293.42" cy="205.11" r="10.96" transform="translate(-5.9 8.71) rotate(-1.68)"/><path class="cls-2" d="M255.33,241.23h-15a3.12,3.12,0,0,1,0-6.23h15a3.12,3.12,0,0,1,0,6.23Z"/><path class="cls-2" d="M215.66,190.82a3.09,3.09,0,0,1-2.33-1.06A15.32,15.32,0,0,0,191,189a3.11,3.11,0,0,1-4.39-4.42A21.55,21.55,0,0,1,218,185.65a3.12,3.12,0,0,1-2.34,5.17Z"/><path class="cls-2" d="M293.83,190.82h-.49a22.06,22.06,0,0,1-15.7-7.33,3.11,3.11,0,1,1,4.67-4.11,15.33,15.33,0,0,0,22.35.75,3.11,3.11,0,0,1,4.39,4.41A22.18,22.18,0,0,1,293.83,190.82Z"/><path class="cls-3" d="M199.78,301.44c-9.66-1-18.1-5.55-26.52-9.75-17.87-8.93-31.88-22-39.59-40.78a91.48,91.48,0,0,1-6.55-31.32c-.92-22.5,2-53.75,8-75.27,8.14-29.12,22.83-54.8,47-73.38a90.46,90.46,0,0,1,47.37-18.81c18.41-1.67,36.5-1.87,54.53,2.74,28.34,7.23,49.19,24,63.24,49.38,12.49,22.58,18,47.07,20.23,72.61,1.27,14.87,1.84,38.83,0,53.68a71.46,71.46,0,0,1-24.34,46c-12.83,11.31-27.67,19.61-44.57,23.64.54-.86.87-2.13,1.65-2.52,7.44-3.77,13.29-9.33,19.17-15.17,10.83-10.75,17.75-23.77,18.95-38.38,2.6-31.72.75-72.35-13.71-101.73-1.9-3.86-2.05-8.5-5.39-11.74-2.15-2.09-5-3.8-6.85-.94-2.81,4.4-7.7,5.61-11.46,7.69a190.81,190.81,0,0,1-50.65,19.28c-28.85,6.51-56.9,15-83,29.32-5.26,2.9-8,6.68-7.8,12.89.29,10.15-.51,29.54.21,39.65,1.39,19.37,8.84,35.91,23.42,49.4C188.48,292.83,195.51,295.43,199.78,301.44Z"/><path class="cls-2" d="M199.78,304.55h-.32c-9.52-1-17.77-5.13-25.74-9.14l-1.85-.93c-19.75-9.87-33.57-24.12-41.08-42.37A95.21,95.21,0,0,1,124,219.72c-1-24.31,2.33-55.65,8.09-76.24,9-32.16,25.19-57.39,48.14-75a93.4,93.4,0,0,1,49-19.44c15.3-1.39,35.44-2.32,55.58,2.82,28.63,7.31,50.56,24.43,65.2,50.89,11.52,20.84,18.07,44.31,20.6,73.85,1.36,15.94,1.8,39.72,0,54.33a74.42,74.42,0,0,1-25.37,48C331.42,291,316,299.23,299.32,303.2a3.11,3.11,0,0,1-3.35-4.69c.11-.18.2-.39.3-.59a6,6,0,0,1,2.58-3.05c6.93-3.51,12.42-8.69,18.38-14.6,10.72-10.64,17-23.24,18-36.42,1.54-18.78,3.32-66.13-13.4-100.11a31.22,31.22,0,0,1-1.76-4.75c-.76-2.46-1.42-4.59-3-6.13a7,7,0,0,0-2.06-1.5h0c-2.6,4.07-6.58,5.9-9.78,7.38-1,.44-1.92.88-2.8,1.37A194.43,194.43,0,0,1,251,159.7c-34.46,7.77-59.79,16.72-82.14,29-4.59,2.52-6.32,5.34-6.19,10.07.12,4.22.06,9.94,0,16-.1,8.7-.2,17.69.21,23.53,1.38,19.16,8.72,34.64,22.43,47.34a51.5,51.5,0,0,0,6.47,4.81c3.76,2.51,7.65,5.1,10.56,9.19a3.11,3.11,0,0,1-2.54,4.91ZM251.05,54.14c-7.48,0-14.63.49-21.26,1.09A87.17,87.17,0,0,0,184,73.41c-21.86,16.77-37.31,40.91-45.94,71.75-5.6,20-8.83,50.58-7.86,74.3a88.79,88.79,0,0,0,6.32,30.27c6.92,16.82,19.73,30,38.1,39.17l1.86.94c3.6,1.8,7.1,3.57,10.66,5a48.91,48.91,0,0,1-6.11-4.66c-14.72-13.62-22.93-30.94-24.4-51.45-.44-6.1-.33-15.22-.23-24.05.06-6,.13-11.64,0-15.74-.2-7.07,2.79-12.06,9.41-15.7,22.88-12.58,48.72-21.72,83.77-29.63a187.87,187.87,0,0,0,49.83-19c1.05-.58,2.15-1.09,3.21-1.58,2.85-1.31,5.53-2.54,7.14-5.06a5.91,5.91,0,0,1,4.38-2.91c2.28-.26,4.73.84,7.26,3.29,2.72,2.64,3.73,5.89,4.61,8.75a27.4,27.4,0,0,0,1.41,3.85c16.77,34.09,16,79.39,14,103.36-1.2,14.68-8.07,28.63-19.86,40.32-2.39,2.38-4.78,4.7-7.27,6.89a105,105,0,0,0,26.77-17.37,68.35,68.35,0,0,0,23.31-44c1.76-14.19,1.32-37.42,0-53-2.45-28.64-8.76-51.31-19.85-71.37-13.77-24.89-34.39-41-61.29-47.87A129.78,129.78,0,0,0,251.05,54.14Z"/><rect class="cls-4" x="241.1" y="257.81" width="62.73" height="86.05" transform="translate(292.52 -104.55) rotate(45)"/><path class="cls-2" d="M264.22,356.54a3.07,3.07,0,0,1-2.2-.91l-44.36-44.35a3.1,3.1,0,0,1,0-4.4L278.51,246a3.1,3.1,0,0,1,4.4,0l44.36,44.35a3.13,3.13,0,0,1,0,4.41l-60.85,60.84A3.1,3.1,0,0,1,264.22,356.54Zm-40-47.46,40,39.95,56.44-56.44-40-40Z"/><rect class="cls-4" x="199.93" y="242.37" width="62.73" height="86.05" transform="translate(-111.71 153.89) rotate(-30)"/><path class="cls-2" d="M225.65,341.45a3.21,3.21,0,0,1-.81-.1A3.1,3.1,0,0,1,223,339.9l-43-74.52a3.11,3.11,0,0,1,1.14-4.25l54.32-31.37a3.11,3.11,0,0,1,4.25,1.14l43,74.52a3.11,3.11,0,0,1-1.14,4.25L227.2,341A3.12,3.12,0,0,1,225.65,341.45ZM186.87,265l39.92,69.13,48.93-28.25-39.91-69.13Z"/><path class="cls-1" d="M268.08,300.83v11.36c-3,5.51-8.13,7.5-14.13,7.94-9.7.71-19-.12-26.39-7.14V300.83c.57,0,1.14,0,1.73,0h37.06C266.94,300.86,267.51,300.84,268.08,300.83Z"/><path class="cls-2" d="M248.61,323.46c-7.85,0-16.17-1.56-23.19-8.21l-1-.92V297.64l3.18.08,1.66,0h37.06l1.66,0,3.18-.08V313l-.38.69c-3.18,5.83-8.62,9-16.62,9.56C252.37,323.37,250.5,323.46,248.61,323.46ZM230.67,311.6c6.82,5.75,15.45,6,23.06,5.43,5.55-.41,9.06-2.17,11.24-5.67V304h-34.3Z"/><path class="cls-5" d="M223.17,260.52a41.59,41.59,0,0,0,49.29,0"/><path class="cls-6" d="M247.82,356.94h48.83L324,364.48a18.15,18.15,0,0,0,22.32-12.67v0a18.14,18.14,0,0,0-12.67-22.31L282,315.22l-.57-.13c-4.06-1.1-8.14-2.13-12.2-3.18-.36.38-.72.74-1.1,1.08-5.83,5.52-12.82,7.22-20.26,7.34-7.44-.12-14.43-1.82-20.27-7.34-.37-.34-.73-.7-1.09-1.08-4.07,1-8.14,2.08-12.2,3.18l-.58.13L162,329.47a18.15,18.15,0,0,0-12.68,22.31v0a18.14,18.14,0,0,0,22.31,12.67l27.4-7.54Z"/><path class="cls-2" d="M166.74,368.26a21.28,21.28,0,0,1-5.62-41.79l51.74-14.25.52-.12c2.85-.77,5.65-1.49,8.44-2.21l5.65-1.46,1.26,1.36c.3.31.59.61.9.89,4.6,4.35,10.38,6.41,18.24,6.54,7.76-.13,13.54-2.19,18.08-6.49.36-.33.65-.62.95-.94l1.27-1.36,5.64,1.46c2.8.72,5.6,1.44,8.38,2.2a4.47,4.47,0,0,1,.57.13l51.75,14.25a21.25,21.25,0,0,1,14.85,26.14,21.29,21.29,0,0,1-26.14,14.87l-27-7.43H199.41l-27,7.43A21.25,21.25,0,0,1,166.74,368.26Zm58.79-52.9-2.15.56c-2.77.71-5.54,1.42-8.3,2.17l-.46.11-51.84,14.27a15,15,0,0,0,8,29l27.8-7.65h98.5l27.8,7.65a15,15,0,0,0,8-29l-52.23-14.36c-2.83-.77-5.6-1.48-8.37-2.19l-2.15-.56c-5.68,5.34-12.76,7.92-22.24,8.08C238.32,323.28,231.25,320.71,225.53,315.36Z"/><rect class="cls-4" x="241.1" y="295.32" width="62.73" height="86.05"/><path class="cls-2" d="M303.83,384.48H241.1a3.11,3.11,0,0,1-3.11-3.11V295.32a3.11,3.11,0,0,1,3.11-3.11h62.73a3.11,3.11,0,0,1,3.11,3.11v86.05A3.11,3.11,0,0,1,303.83,384.48Zm-59.62-6.22h56.51V298.43H244.21Z"/><rect class="cls-4" x="196.19" y="289.85" width="62.73" height="86.05" transform="translate(-135.95 158.38) rotate(-30)"/><path class="cls-2" d="M221.9,388.93a3.19,3.19,0,0,1-.8-.1,3.1,3.1,0,0,1-1.89-1.45l-43-74.52a3.13,3.13,0,0,1,1.14-4.25l54.33-31.37a3.11,3.11,0,0,1,4.25,1.14l43,74.52a3.13,3.13,0,0,1-1.14,4.25l-54.33,31.37A3.16,3.16,0,0,1,221.9,388.93Zm-38.77-76.49L223,381.57,272,353.32l-39.91-69.13Z"/><path class="cls-1" d="M254.92,374.78a3.36,3.36,0,0,0-.58-6.7l-8,.7.24-.5a2.48,2.48,0,0,0,.61,0l12.29-1.07a3.09,3.09,0,0,0,2.81-3.35l0-.54a3.09,3.09,0,0,0-3.35-2.81l-11,1c0-.13,0-.27,0-.41L262,359.84a3.36,3.36,0,1,0-.59-6.69l-15.1,1.32a3.47,3.47,0,0,0-.56.11c-.09-.15-.19-.3-.29-.45L258,353a3.35,3.35,0,0,0,3.05-3.64h0a3.35,3.35,0,0,0-3.64-3.05l-21.07,1.84-.83-.14,3.5-4.18a3.36,3.36,0,1,0-5.14-4.32l-12,14.31a3.16,3.16,0,0,0-.65,1.24,14.31,14.31,0,0,0,13.66,21.44H235Z"/><path class="cls-2" d="M233.7,379.69a17.44,17.44,0,0,1-15.34-25.87,6.56,6.56,0,0,1,1.13-2l12-14.31a6.47,6.47,0,0,1,10.78,7l14.88-1.3a6.49,6.49,0,0,1,7,5.88,5.86,5.86,0,0,1,0,1.39,6.47,6.47,0,0,1,1,11.43,6.08,6.08,0,0,1,.2,1.13l.05.52A6.2,6.2,0,0,1,261,370.1a6.5,6.5,0,0,1-5.77,7.78h0l-20,1.74h-.16C234.61,379.67,234.16,379.69,233.7,379.69Zm21.22-4.91h0Zm-18.46-33.32a.25.25,0,0,0-.19.09l-12,14.3a3.69,3.69,0,0,1-.34.79,11.21,11.21,0,0,0,10.61,16.8h.25l19.87-1.74a.25.25,0,0,0,.23-.27.26.26,0,0,0-.27-.23l-8,.7a3.11,3.11,0,0,1-3-4.53l.18-.37a3.08,3.08,0,0,1,3.16-1.79l12.3-1.07-.07-.51-11,1a3.1,3.1,0,0,1-3.38-2.92s0-.25,0-.29a3.34,3.34,0,0,1,2.83-3.4l14.07-1.22a.27.27,0,0,0,.23-.28c0-.13-.08-.2-.28-.22l-15.1,1.32a3.18,3.18,0,0,1-3.46-1.33l-.23-.34a3.12,3.12,0,0,1,2.3-4.87l12.57-1.1a.25.25,0,1,0,0-.49l-21.08,1.84a3.18,3.18,0,0,1-.87,0l-.63-.1a3.12,3.12,0,0,1-2-5.09l3.51-4.18a.27.27,0,0,0,0-.35A.24.24,0,0,0,236.46,341.46Z"/><path class="cls-6" d="M176.23,314.11h19.31a8.5,8.5,0,0,1,8.5,8.5v64.22a3.23,3.23,0,0,1-3.23,3.23H172a4.3,4.3,0,0,1-4.3-4.3V322.61a8.5,8.5,0,0,1,8.5-8.5Z" transform="translate(-196.82 461.84) rotate(-78.17)"/><path class="cls-2" d="M212.86,379.21a12,12,0,0,1-2.38-.24l-49.86-10.45a19.74,19.74,0,0,1-15.26-23.34l.63-3a19.74,19.74,0,0,1,23.35-15.26l51.91,10.87a9.43,9.43,0,0,1,7.28,11.15l-4.43,21.16a11.5,11.5,0,0,1-11.24,9.15Zm-47.59-46.53a13.51,13.51,0,0,0-13.18,10.74l-.64,3a13.51,13.51,0,0,0,10.44,16l49.87,10.44a5.2,5.2,0,0,0,4-.74,5.25,5.25,0,0,0,2.28-3.34l4.43-21.17,3.05.64-3.05-.64a3.17,3.17,0,0,0-2.47-3.77L168.06,333A14,14,0,0,0,165.27,332.68Z"/><path class="cls-1" d="M237.06,333.71a3.36,3.36,0,0,1,3.35-5.83l6.92,4c0-.18,0-.37,0-.55a2.53,2.53,0,0,1-.56-.25l-10.7-6.14a3.09,3.09,0,0,1-1.14-4.22l.26-.46a3.09,3.09,0,0,1,4.22-1.15l9.59,5.5c.06-.12.11-.25.18-.37l-12.24-7a3.36,3.36,0,0,1,3.34-5.83l13.15,7.54a3.17,3.17,0,0,1,.46.33l.46-.28-11-6.28a3.35,3.35,0,0,1-1.24-4.58h0a3.37,3.37,0,0,1,4.59-1.25l18.35,10.53c.27.07.54.14.81.23l-1.43-5.27a3.36,3.36,0,0,1,6.49-1.75l4.88,18a3.29,3.29,0,0,1,.08,1.39,14.33,14.33,0,0,1-21.41,13.72l0,0h0Z"/><path class="cls-2" d="M261.62,348.74a17.33,17.33,0,0,1-8.66-2.32l-.07,0-17.38-10a6.49,6.49,0,0,1-2.39-8.84c.13-.22.27-.44.42-.65a6.2,6.2,0,0,1-1.32-7.77l.27-.48a6.73,6.73,0,0,1,.65-.93,6.47,6.47,0,0,1,5.75-9.93,6.54,6.54,0,0,1,.56-1.27,6.46,6.46,0,0,1,8.84-2.39l13,7.43A6.47,6.47,0,0,1,274,309.77l4.89,18a6.46,6.46,0,0,1,.19,2.27,17.42,17.42,0,0,1-12.84,18.07A17.53,17.53,0,0,1,261.62,348.74Zm-5.52-7.69a11.22,11.22,0,0,0,16.72-10.77,2.77,2.77,0,0,1,0-.76L268,311.39a.3.3,0,0,0-.3-.18.25.25,0,0,0-.17.31l1.42,5.27a3.11,3.11,0,0,1-3.93,3.78c-.21-.07-.41-.12-.62-.17a2.88,2.88,0,0,1-.81-.33l-18.35-10.53a.28.28,0,0,0-.34.1.28.28,0,0,0,.09.34l10.95,6.28a3.11,3.11,0,0,1,.05,5.36l-.38.24a3.11,3.11,0,0,1-3.66-.23l-13.18-7.57a.25.25,0,0,0-.34.09.26.26,0,0,0,.1.34l12.24,7a3.11,3.11,0,0,1,1.16,4.24l-.15.28a3.06,3.06,0,0,1-1.88,1.53,3.12,3.12,0,0,1-2.41-.29l-9.58-5.5-.25.47,10.7,6.1a3.11,3.11,0,0,1,2.12,2.92v.46a3.12,3.12,0,0,1-4.66,2.82l-6.92-4a.25.25,0,1,0-.25.43h0L255.94,341Z"/><path class="cls-6" d="M295.38,304.15h28.8a3.23,3.23,0,0,1,3.23,3.23V371.6a8.5,8.5,0,0,1-8.5,8.5H299.59a8.5,8.5,0,0,1-8.5-8.5V308.45a4.3,4.3,0,0,1,4.3-4.3Z" transform="translate(-93.77 566.31) rotate(-76.98)"/><path class="cls-2" d="M329.71,368.18a20,20,0,0,1-4.45-.51l-49.63-11.48a11.52,11.52,0,0,1-8.62-13.8l4.88-21.07a9.39,9.39,0,0,1,11.29-7.05l51.67,12a19.74,19.74,0,0,1,14.77,23.65l-.7,3A19.76,19.76,0,0,1,329.71,368.18ZM278,322.72l-4.87,21.07a5.27,5.27,0,0,0,3.95,6.33l49.64,11.49a13.52,13.52,0,0,0,16.19-10.11l.7-3a13.52,13.52,0,0,0-10.11-16.19l-51.67-11.95a3.19,3.19,0,0,0-3.83,2.39Z"/></svg>