<svg id="Calque_1" data-name="Calque 1" xmlns="http://www.w3.org/2000/svg" viewBox="0 0 500 500"><defs><style>.cls-1{fill:#f6b285;}.cls-2{fill:#1e1e1c;}.cls-3{fill:#23c6b0;}.cls-4{fill:none;}.cls-5{fill:#ff7276;}.cls-6{fill:#f5f5f5;}</style></defs><path class="cls-1" d="M336.77,168.68V229.9a71,71,0,0,1-69.24,70.94l-1.74,0H228.51l-1.74,0a71,71,0,0,1-69.22-70.94V168.68a47,47,0,0,1,47-47h85.15A47.05,47.05,0,0,1,336.77,168.68Z"/><path class="cls-2" d="M265.79,304H228.51l-1.81,0c-39.86-1-72.28-34.19-72.28-74.07V168.68a50.22,50.22,0,0,1,50.16-50.17h85.15a50.23,50.23,0,0,1,50.17,50.17V229.9c0,39.88-32.43,73.1-72.29,74.07ZM204.58,124.77a44,44,0,0,0-43.91,43.91V229.9c0,36.51,29.69,66.93,66.18,67.81l1.66,0h37.28l1.67,0c36.49-.88,66.18-31.3,66.18-67.81V168.68a44,44,0,0,0-43.91-43.91Z"/><circle class="cls-2" cx="201.3" cy="204.56" r="11.03"/><circle class="cls-2" cx="293.02" cy="204.56" r="11.02" transform="translate(-5.88 8.7) rotate(-1.68)"/><path class="cls-2" d="M214.82,190.19a3.13,3.13,0,0,1-2.35-1.06,15.42,15.42,0,0,0-22.49-.75,3.13,3.13,0,0,1-4.41-4.44,21.68,21.68,0,0,1,31.6,1.05,3.13,3.13,0,0,1-2.35,5.2Z"/><path class="cls-2" d="M293.44,190.19H293a22.21,22.21,0,0,1-15.8-7.37,3.13,3.13,0,0,1,4.7-4.13,15.41,15.41,0,0,0,22.48.75,3.13,3.13,0,1,1,4.41,4.44A22.32,22.32,0,0,1,293.44,190.19Z"/><path class="cls-3" d="M152.71,194.19c.2-17.11,2.26-52.64,2.26-52.64a9.51,9.51,0,0,0-2.89-7.67c-7.24-7.44-7.35-13-.64-21.29,2.26-2.76.43-4.75-1.05-6.58a27.35,27.35,0,0,1-5.67-12.88c-1.53-8.77,2.69-13.38,11.55-13.28a14.43,14.43,0,0,1,7.19,1.67c3.57,2.09,5.42,3.18,4.31-2.68-.87-4.61,3.28-7.53,8.21-6.78,6.49,1,12.34,3.93,18.53,5.84,3.06.95,5.94,2.22,6.81-2.72.42-2.34,2.9-2.57,4.74-2.16,12.83,2.91,25.52-.09,38.08-1.51,10.69-1.2,21,0,31.2,1.76,9.71,1.64,18.71,6.18,27.32,11.12,1.65,1,3.29,2,5,2.78,2.34,1.11,4.41,1.51,5-2.06.45-2.54,2.2-3.86,4.85-4.07a6.19,6.19,0,0,1,6.32,3,15.75,15.75,0,0,1,2.52,10.39c-.51,4.18.53,6.67,5.39,7.53a10,10,0,0,1,8.45,10.62c-.11,1.4-.19,3.14-1.42,3.56-5.89,2-3,5.74-1.8,8.9,5.17,14,3.77,28.45,2.54,42.61-1.16,13.33,1,17.9.83,31.41,0,2.32-.08,4.69-.2,9.44-.51,21.32.31,26.42-.81,37-.5,4.78-1,9.87.84,14.65-1.63,7.73-2.74,15.47-7.58,22.33-1.73,2.45-.43,7.05-.5,10.67-.11,5.62-2.89,9.39-8.19,11a6.59,6.59,0,0,0-4.61,4.5c-3.33,8.47-9,13.41-18.7,14.23-4.64.4-7.52,5.19-8.73,10.07a14.81,14.81,0,0,0-4,0c-6.33,1.75-12.4,2.1-18-2.26-1.59-1.25-2.19.32-3.11,1.28-7.58,7.84-15.26,8.14-23.38.55-2.21-2.06-3.41-1.22-5.33,0-6.41,4-13.54,4.84-19.29-.07-5.29-4.51-9.79-5.94-15.57-1.9-.2-1.69-1.38-1.86-2.8-2.19-5.89-1.39-11.46-3.23-12.29-10.63-.26-2.33-2.38-2.7-4.27-3.1A17.16,17.16,0,0,1,170.46,303a14.43,14.43,0,0,0-5.93-7.66c-5.83-4.05-9.64-10.29-9.52-17.88a60.47,60.47,0,0,0-2.43-16.84c1.86-1.94,1.08-4.37,1.08-6.58,0-13.94.82-23.35-.2-42.93C152.94,201.26,152.68,196.34,152.71,194.19Zm103.45,48.6c5.45.93,11,1.64,16.35,2.84,13.13,2.94,25.31,7.66,32.84,19.87,1.49,2.42,3.45,1.95,5.52,1.55,8.49-1.66,15.26-10.4,15.39-21.52.33-27.41.12-54.82.22-82.24,0-3.52-1.53-5.75-4.81-6-7.4-.49-14.84-.77-22.26-.72-11.72.08-22.85,3.74-34.21,6-14.25,2.89-28.74,4.78-43.3,3.5-17.29-1.52-35.22-1-50.08-12.45-2.29-1.76-3-.5-3.37,1.53a23.42,23.42,0,0,0-.76,4.49c0,27.42-.18,54.84.12,82.25.12,10.64,4.3,19.66,14.08,25.07,5.33,3,9.25,2.14,12.28-3,2.17-3.69,5.48-5.59,8.61-8,10.36-8.1,22.74-10.5,35.11-13A103.24,103.24,0,0,0,256.16,242.79Zm-8.92,40.76c4.07.52,8.43-.35,12.6-1.61a31.78,31.78,0,0,0,15.75-10c1.68-2,2.24-4.82,0-6.72s-4.82-1.79-7,.85a20.05,20.05,0,0,1-4.7,4.11c-11.63,7.35-26.42,6-37-3.3-2.37-2.08-5-4.36-7.92-1.35-3.36,3.41-.48,5.83,1.93,8.09A34.82,34.82,0,0,0,247.24,283.55Z"/><path class="cls-2" d="M255,341.23c-4.56,0-9.17-2.12-13.71-6.36a5.05,5.05,0,0,0-.41-.34c-.26.13-.66.38-1,.58-8.48,5.24-16.85,5.11-23.13-.25-4.85-4.13-7.7-4.54-11.74-1.72a3.14,3.14,0,0,1-4.77-1.58l-.27-.06-.28-.06c-5.05-1.2-13.5-3.19-14.67-13.25a10.28,10.28,0,0,0-1.62-.42l-.2,0A20.4,20.4,0,0,1,167.51,304a11.3,11.3,0,0,0-4.76-6.13,24.3,24.3,0,0,1-10.87-20.51,56.56,56.56,0,0,0-2.32-16,3.12,3.12,0,0,1,.76-3c.41-.42.43-1,.3-2.63-.05-.6-.09-1.2-.09-1.78,0-4.36.07-8.27.15-12.19.18-8.45.35-17.2-.35-30.57v-.2c-.51-9.77-.77-14.68-.74-16.91h0c.2-17,2.25-52.43,2.27-52.79a6.42,6.42,0,0,0-2-5.31c-8.34-8.56-8.57-15.93-.82-25.44a1.63,1.63,0,0,0,.35-.59,6.47,6.47,0,0,0-1.21-1.8L148,108a30.84,30.84,0,0,1-6.33-14.33c-.91-5.23-.07-9.41,2.5-12.42s6.73-4.56,12.18-4.52a17.82,17.82,0,0,1,8.26,1.83,8.32,8.32,0,0,1,2.29-6.76A11,11,0,0,1,176.45,69a64.52,64.52,0,0,1,12.84,3.78c2.11.79,4.1,1.53,6.14,2.16l.62.2a18.37,18.37,0,0,0,1.93.53,5.4,5.4,0,0,0,.26-1,5.67,5.67,0,0,1,2.46-3.83,7.82,7.82,0,0,1,6.05-.84c9.61,2.17,19.07.86,29.1-.53,2.65-.37,5.3-.74,7.94-1,11.38-1.29,22.14.09,32.08,1.77,10.4,1.76,19.77,6.57,28.35,11.5l1.14.67c1.25.73,2.44,1.42,3.65,2a6.52,6.52,0,0,0,.6.27s0,0,0,0c.69-3.9,3.49-6.32,7.69-6.65a9.27,9.27,0,0,1,9.22,4.51,18.92,18.92,0,0,1,3,12.42c-.37,3,0,3.57,2.83,4.07a13.18,13.18,0,0,1,11,14c-.14,1.8-.4,5.21-3.54,6.28a3.49,3.49,0,0,0-1.48.76,12.29,12.29,0,0,0,.9,2.38c.26.57.51,1.15.71,1.7,5.31,14.32,4,29,2.8,43.1l-.07.87a86.43,86.43,0,0,0,.19,17,135.56,135.56,0,0,1,.65,14.12c0,2.27-.08,4.58-.19,9.08v.4c-.21,8.77-.19,14.75-.18,19.56a148.73,148.73,0,0,1-.64,17.72c-.47,4.48-1,9.11.64,13.2a3.08,3.08,0,0,1,.14,1.78l-.54,2.65c-1.42,7-2.88,14.23-7.55,20.83-.52.75-.3,3.22-.14,5a36.31,36.31,0,0,1,.22,3.91c-.14,7-3.84,11.94-10.41,13.93-1.4.43-2,1-2.61,2.65-3.94,10-10.92,15.33-21.35,16.21-3,.26-5.07,4.15-5.95,7.7a3.1,3.1,0,0,1-3.08,2.38c-.49,0-1,0-1.5-.09a6,6,0,0,0-1.62,0c-5.57,1.54-12.74,2.65-19.53-1.95l-.12.12C264.56,338.89,259.83,341.23,255,341.23Zm-14-13a6.66,6.66,0,0,1,4.57,2.08c6.83,6.39,12.51,6.26,19-.44.12-.12.22-.26.33-.39,2.92-3.7,5.84-2,7-1.17,3.95,3.1,8.36,3.59,15.2,1.71a8.2,8.2,0,0,1,2.55-.26c2.11-5.86,6-9.5,10.73-9.9,8-.68,13-4.46,16.05-12.27a9.83,9.83,0,0,1,6.62-6.35c4-1.21,5.89-3.77,6-8.06a29.49,29.49,0,0,0-.19-3.22c-.28-3.08-.6-6.57,1.26-9.2,3.9-5.53,5.18-11.81,6.52-18.46.13-.61.25-1.22.38-1.82-1.76-5.22-1.2-10.52-.71-15.22a141,141,0,0,0,.61-17.05c0-4.85,0-10.88.18-19.72v-.41c.11-4.46.17-6.75.19-9a131.88,131.88,0,0,0-.62-13.53,92.76,92.76,0,0,1-.2-18.12l.08-.87c1.17-13.46,2.38-27.38-2.44-40.38-.16-.44-.36-.89-.56-1.34-.88-2-2.09-4.71-.89-7.47a7.53,7.53,0,0,1,4.38-3.85c.05-.31.08-.69.1-1a6.91,6.91,0,0,0-5.86-7.47c-6.12-1.08-8.72-4.67-8-11a12.65,12.65,0,0,0-2.08-8.37c-.68-1.1-1.47-1.71-3.41-1.56-1.77.14-1.89.86-2,1.49-.42,2.39-1.46,4-3.09,4.87-2.52,1.31-5.22,0-6.37-.52-1.46-.69-2.82-1.48-4.13-2.25l-1.1-.64C293,82.46,284.25,78,274.82,76.35s-19.71-2.92-30.33-1.73c-2.59.3-5.18.66-7.78,1-10.14,1.4-20.63,2.86-31.34.43a3.24,3.24,0,0,0-1-.07c-.48,2.48-1.49,4.15-3.08,5.11-2.41,1.46-5,.63-7.12,0l-.57-.18c-2.21-.68-4.38-1.49-6.48-2.28a59.37,59.37,0,0,0-11.6-3.45,4.82,4.82,0,0,0-4.13,1,2.27,2.27,0,0,0-.53,2.12c.52,2.71.87,5.73-1.42,7.34s-4.85.19-7.5-1.36A11.46,11.46,0,0,0,156.24,83c-2.49,0-5.67.35-7.35,2.32-1.3,1.53-1.67,4-1.09,7.29a24.15,24.15,0,0,0,5,11.45l.19.23c1.38,1.7,4.63,5.67.86,10.3-5.73,7-5.63,10.87.45,17.12a12.74,12.74,0,0,1,3.78,10c0,.41-2.06,35.71-2.26,52.55,0,2,.23,6.87.73,16.51v.2c.72,13.6.54,22.46.36,31-.08,3.87-.16,7.75-.16,12.06,0,.42,0,.85.08,1.29a10,10,0,0,1-.88,5.92,61.32,61.32,0,0,1,2.16,16.25c-.1,6.12,2.81,11.54,8.18,15.27a17.48,17.48,0,0,1,7.09,9.19,14.07,14.07,0,0,0,11.15,9.65c2.15.45,6.23,1.31,6.73,5.81.55,4.92,3.5,6.42,9.9,7.93l.25.06a8.3,8.3,0,0,1,2.71,1c7-3.35,12.55.1,16.72,3.66,5.3,4.52,11.42,2.38,15.62-.21A8.69,8.69,0,0,1,241,328.21Zm-55.82-9.94h0ZM197.86,75.89Zm51.89,210.94a22.42,22.42,0,0,1-2.63-.15c-11,.42-20.25-3.1-28.42-10.75l-.27-.26c-1.83-1.71-4.11-3.83-4.18-6.94a7.41,7.41,0,0,1,2.42-5.37c5-5.1,10.05-.72,12.19,1.15,9.58,8.39,23,9.59,33.32,3a16.76,16.76,0,0,0,4-3.46,8.28,8.28,0,0,1,5.62-3.25,7.87,7.87,0,0,1,5.8,2c3.33,2.79,3.52,7.35.44,11.1-4.18,5.09-10,8.79-17.26,11A38.14,38.14,0,0,1,249.75,286.83Zm-2.51-6.41.4,0c3,.39,6.63-.09,11.29-1.5,6.07-1.84,10.86-4.85,14.24-9,.59-.72,1.13-1.7.38-2.33a2,2,0,0,0-1.21-.56,2.48,2.48,0,0,0-1.37,1,23.29,23.29,0,0,1-5.44,4.77c-12.73,8-29.11,6.6-40.76-3.6-2.76-2.41-2.92-2.23-3.64-1.5-.56.57-.62.86-.62.87.07.5,1.44,1.78,2.19,2.47l.28.27a31.72,31.72,0,0,0,24.13,9.06Zm-59.79-8.55a14.75,14.75,0,0,1-7.08-2.11c-10.12-5.61-15.55-15.21-15.69-27.78-.23-21.4-.19-43.15-.15-64.18l0-18.1a18.78,18.78,0,0,1,.59-4c.08-.36.16-.71.23-1.06.21-1,.75-3.71,3.17-4.62,1.6-.6,3.34-.19,5.18,1.22,12,9.2,26,10.19,40.82,11.23,2.55.18,5.09.36,7.62.59,12.22,1.07,25.3,0,42.41-3.45,3.08-.63,6.22-1.37,9.26-2.09,8.21-1.94,16.71-3.95,25.55-4,7.09-.05,14.43.19,22.49.73,4.79.32,7.75,3.81,7.73,9.1,0,10.08,0,20.16,0,30.24,0,17.05,0,34.68-.19,52-.14,12.22-7.68,22.55-17.92,24.55-2.28.45-6.2,1.22-8.78-3-7.26-11.78-19.13-15.83-30.87-18.46-3.6-.81-7.37-1.4-11-2l-4.75-.76a107.72,107.72,0,0,1-18,.15l-.46.09c-12,2.48-23.39,4.81-32.93,12.27-.66.51-1.33,1-2,1.5-2.39,1.76-4.44,3.27-5.85,5.66C195,268.77,192,271.87,187.45,271.87ZM171.23,157.14a12.71,12.71,0,0,0-.41,2.57l0,18.1c0,21-.09,42.74.15,64.1.12,10.33,4.31,17.86,12.46,22.37,4.43,2.45,6.25,1.24,8.07-1.84,2.05-3.49,4.83-5.54,7.52-7.52.62-.46,1.24-.92,1.86-1.4,10.69-8.35,23.31-11,35.52-13.46l.89-.18a2.88,2.88,0,0,1,.88,0,100.84,100.84,0,0,0,17.72-.15,2.9,2.9,0,0,1,.83,0c1.69.29,3.39.55,5.08.82,3.75.59,7.62,1.2,11.42,2.05,12.45,2.79,26.33,7.5,34.82,21.28a1.28,1.28,0,0,0,.3.37,7.11,7.11,0,0,0,1.78-.22c7.52-1.47,12.93-9.24,13-18.51.21-17.31.2-34.92.19-52,0-10.08,0-20.17,0-30.26,0-2.71-1-2.78-1.89-2.83-7.9-.53-15.1-.77-22-.72-8.13.05-15.91,1.89-24.15,3.84-3.09.73-6.28,1.49-9.46,2.13-17.72,3.59-31.35,4.68-44.2,3.55-2.49-.22-5-.4-7.51-.57C199.48,167.64,184.38,166.58,171.23,157.14Z"/><path class="cls-2" d="M254.71,240.89H239.6a3.13,3.13,0,0,1,0-6.26h15.11a3.13,3.13,0,0,1,0,6.26Z"/><path class="cls-1" d="M267.54,300.84v11.43c-3,5.53-8.18,7.53-14.21,8-9.77.72-19.09-.12-26.55-7.18V300.84l1.74,0H265.8Z"/><path class="cls-2" d="M248,323.6c-7.89,0-16.26-1.57-23.32-8.26l-1-.92V297.64l3.19.07,1.68,0H265.8l1.67,0,3.19-.07v15.42l-.39.7c-3.19,5.87-8.66,9-16.72,9.61C251.74,323.51,249.86,323.6,248,323.6Zm-18-11.93c6.86,5.78,15.54,6,23.19,5.46,5.59-.42,9.11-2.18,11.31-5.71V304h-34.5Zm37.63-10.83.07,3.13Z"/><path class="cls-4" d="M222.37,260.29a41.8,41.8,0,0,0,49.57,0"/><path class="cls-5" d="M247.16,357.27h49.11l27.55,7.59a18.25,18.25,0,0,0,22.44-12.75v0a18.25,18.25,0,0,0-12.75-22.44l-52-14.33-.58-.13c-4.08-1.11-8.18-2.14-12.27-3.2-.36.39-.72.75-1.1,1.09-5.87,5.55-12.9,7.26-20.38,7.38-7.49-.12-14.51-1.83-20.39-7.38-.37-.34-.73-.7-1.1-1.09-4.08,1.06-8.18,2.09-12.27,3.2l-.57.13-52,14.33A18.25,18.25,0,0,0,148,352.08v0a18.25,18.25,0,0,0,22.44,12.75l27.56-7.59Z"/><path class="cls-2" d="M165.61,368.65a21.4,21.4,0,0,1-5.65-42l52-14.33.54-.12c2.91-.79,5.79-1.53,8.66-2.27l5.48-1.42,1.28,1.36c.3.32.6.62.91.9,4.62,4.38,10.43,6.45,18.34,6.58,7.8-.13,13.61-2.2,18.18-6.52.37-.34.66-.64,1-1l1.27-1.36,5.51,1.43c2.87.73,5.74,1.47,8.6,2.25.23,0,.41.08.6.14l52,14.32A21.4,21.4,0,0,1,323,367.88l-27.15-7.48H198.47l-27.15,7.48A21.4,21.4,0,0,1,165.61,368.65Zm131.08-14.51,28,7.7a15.13,15.13,0,0,0,8-29.18l-52.52-14.44c-2.91-.79-5.76-1.52-8.6-2.25l-2-.52c-5.7,5.37-12.83,8-22.36,8.13-9.61-.16-16.72-2.74-22.47-8.13l-2,.51c-2.85.74-5.69,1.47-8.53,2.24l-.45.1-52.16,14.36a15.13,15.13,0,0,0,8,29.18l28-7.7Z"/><rect class="cls-6" x="215.61" y="221.09" width="63.09" height="207.53"/><path class="cls-2" d="M278.7,431.74H215.61a3.13,3.13,0,0,1-3.13-3.12V221.09a3.13,3.13,0,0,1,3.13-3.13H278.7a3.13,3.13,0,0,1,3.13,3.13V428.62A3.13,3.13,0,0,1,278.7,431.74Zm-60-6.25h56.84V224.22H218.74Z"/><path class="cls-1" d="M207.37,298a13.51,13.51,0,0,0-2.19,4.8,14.63,14.63,0,0,0-.42,3.46,14.43,14.43,0,0,0,14.42,14.43h14.61a3.38,3.38,0,0,0,0-6.76h-2.41c.1-.16.2-.32.29-.48a3.08,3.08,0,0,0,.61.06h6.79a3.11,3.11,0,0,0,3.11-3.11v-.54a3.12,3.12,0,0,0-3.11-3.11h-5.49c0-.14,0-.27,0-.41h8.58a3.38,3.38,0,0,0,0-6.76h-9.63a3.55,3.55,0,0,0-.57.06c-.08-.16-.17-.32-.26-.47h7.08a3.38,3.38,0,0,0,0-6.76H223.14a19.06,19.06,0,0,0-10.3,1.49A13.19,13.19,0,0,0,207.37,298Z"/><path class="cls-2" d="M233.79,323.79H219.26a.11.11,0,0,0-.08,0,17.57,17.57,0,0,1-17-21.77,16.56,16.56,0,0,1,2.72-5.92,16.22,16.22,0,0,1,6.67-5.07,22.24,22.24,0,0,1,11.79-1.78H238.8a6.52,6.52,0,0,1,6.51,6.51,6.28,6.28,0,0,1-.15,1.38,6.51,6.51,0,0,1,0,11.55,6.12,6.12,0,0,1,.11,1.14v.54a6.25,6.25,0,0,1-5.06,6.13,5,5,0,0,1,.05.78A6.52,6.52,0,0,1,233.79,323.79Zm-14.43-6.26h14.43a.25.25,0,0,0,.25-.25.25.25,0,0,0-.25-.25h-2.41a3.14,3.14,0,0,1-2.65-4.79l.22-.37a3.15,3.15,0,0,1,3.34-1.52h6.78l0-.52-5.47,0a3.13,3.13,0,0,1-3.13-3.26s0-.21,0-.24a3.17,3.17,0,0,1,3.14-3.17h8.58a.25.25,0,0,0,0-.5h-9.63a3.18,3.18,0,0,1-3.35-1.63l-.2-.37a3.13,3.13,0,0,1,2.72-4.67h7.08a.25.25,0,0,0,0-.5H223.14l-.39,0a16,16,0,0,0-8.6,1.24,10.11,10.11,0,0,0-4.27,3.12h0a10.23,10.23,0,0,0-1.66,3.69,11.15,11.15,0,0,0-.33,2.7,11.3,11.3,0,0,0,11.22,11.3Zm-12-19.56h0Z"/><path class="cls-5" d="M172.06,296.48h19.52a8.5,8.5,0,0,1,8.5,8.5v64.65a3.23,3.23,0,0,1-3.23,3.23h-29a4.3,4.3,0,0,1-4.3-4.3V305a8.5,8.5,0,0,1,8.5-8.5Z" transform="translate(34.8 686.03) rotate(-128.78)"/><path class="cls-2" d="M166.08,369.19a20.37,20.37,0,0,1-2.19-.12,19.73,19.73,0,0,1-13.31-7.29l-2-2.44a19.86,19.86,0,0,1,3-27.88l41.59-33.41a9.48,9.48,0,0,1,13.31,1.45l13.62,16.95a11.56,11.56,0,0,1-1.77,16.27l-39.94,32.09A19.69,19.69,0,0,1,166.08,369.19Zm33.1-67a3.17,3.17,0,0,0-2,.71l-41.58,33.41a13.58,13.58,0,0,0-2.08,19.08l2,2.44a13.57,13.57,0,0,0,19.09,2.07l39.94-32.09a5.32,5.32,0,0,0,.81-7.47l-13.62-16.95A3.19,3.19,0,0,0,199.18,302.22Z"/><path class="cls-1" d="M286.94,298a13.32,13.32,0,0,1,2.19,4.8,14.14,14.14,0,0,1,.43,3.46,14.43,14.43,0,0,1-14.42,14.43H260.52a3.38,3.38,0,1,1,0-6.76h2.41l-.29-.48a3,3,0,0,1-.6.06h-6.79a3.11,3.11,0,0,1-3.11-3.11v-.54a3.11,3.11,0,0,1,3.11-3.11h5.49c0-.14,0-.27,0-.41h-8.58a3.38,3.38,0,1,1,0-6.76h9.63a3.68,3.68,0,0,1,.57.06c.08-.16.16-.32.25-.47h-7.07a3.38,3.38,0,0,1,0-6.76h15.66a19.07,19.07,0,0,1,10.3,1.49A13.17,13.17,0,0,1,286.94,298Z"/><path class="cls-2" d="M275.13,323.79H260.52a6.49,6.49,0,0,1-6.46-7.29,6.25,6.25,0,0,1-5.05-6.13v-.54a6.12,6.12,0,0,1,.1-1.14,6.51,6.51,0,0,1,0-11.55,6.28,6.28,0,0,1-.15-1.38,6.52,6.52,0,0,1,6.51-6.51H271a22.17,22.17,0,0,1,11.8,1.78,16.27,16.27,0,0,1,6.66,5.07h0a16.48,16.48,0,0,1,2.71,5.92,17.57,17.57,0,0,1-17,21.77ZM260.52,317a.25.25,0,0,0-.25.25.25.25,0,0,0,.25.25h14.69a11.31,11.31,0,0,0,11.22-11.3,11.15,11.15,0,0,0-.33-2.7,10.23,10.23,0,0,0-1.66-3.69h0a10.23,10.23,0,0,0-4.27-3.12,16,16,0,0,0-8.61-1.24,2.43,2.43,0,0,1-.38,0H255.52a.25.25,0,1,0,0,.5h7.07a3.12,3.12,0,0,1,2.72,4.67l-.2.37a3.12,3.12,0,0,1-3.3,1.64h-9.67a.25.25,0,1,0,0,.5h8.58a3.13,3.13,0,0,1,3.13,3.13s0,.29,0,.33a3.14,3.14,0,0,1-3.13,3.21h-5.49l0,.52,6.77,0a3.12,3.12,0,0,1,3.32,1.52l.23.37a3.14,3.14,0,0,1-2.66,4.79Z"/><path class="cls-5" d="M298.53,296.48h29a3.23,3.23,0,0,1,3.23,3.23v64.65a8.5,8.5,0,0,1-8.5,8.5H302.74a8.5,8.5,0,0,1-8.5-8.5V300.78A4.3,4.3,0,0,1,298.53,296.48Z" transform="translate(-144.13 368.66) rotate(-51.22)"/><path class="cls-2" d="M328.25,369.18a19.71,19.71,0,0,1-12.4-4.37l-39.94-32.09a11.57,11.57,0,0,1-1.78-16.27l13.62-16.95h0a9.46,9.46,0,0,1,13.32-1.45l41.58,33.41a19.86,19.86,0,0,1,3,27.88l-2,2.43A19.81,19.81,0,0,1,328.25,369.18Zm-33.11-67a2.06,2.06,0,0,0-.35,0,3.19,3.19,0,0,0-2.16,1.18h0L279,320.37a5.31,5.31,0,0,0,.82,7.47l39.94,32.09a13.58,13.58,0,0,0,19.08-2.08l2-2.43a13.59,13.59,0,0,0-2.08-19.08l-41.58-33.41A3.16,3.16,0,0,0,295.14,302.22Z"/><rect class="cls-6" x="224.42" y="230.79" width="14.31" height="14.31"/><path class="cls-2" d="M238.73,248.22H224.42a3.13,3.13,0,0,1-3.13-3.13v-14.3a3.13,3.13,0,0,1,3.13-3.13h14.31a3.13,3.13,0,0,1,3.13,3.13v14.3A3.13,3.13,0,0,1,238.73,248.22ZM227.55,242h8v-8.05h-8Z"/><path class="cls-2" d="M267.54,240.89H248.76a3.13,3.13,0,0,1,0-6.26h18.78a3.13,3.13,0,0,1,0,6.26Z"/><rect class="cls-6" x="224.42" y="259.58" width="14.31" height="14.31"/><path class="cls-2" d="M238.73,277H224.42a3.13,3.13,0,0,1-3.13-3.13v-14.3a3.13,3.13,0,0,1,3.13-3.13h14.31a3.13,3.13,0,0,1,3.13,3.13v14.3A3.13,3.13,0,0,1,238.73,277Zm-11.18-6.25h8v-8.05h-8Z"/><path class="cls-2" d="M267.54,269.68H248.76a3.13,3.13,0,1,1,0-6.26h18.78a3.13,3.13,0,0,1,0,6.26Z"/><rect class="cls-6" x="224.42" y="345.95" width="14.31" height="14.31"/><path class="cls-2" d="M238.73,363.39H224.42a3.13,3.13,0,0,1-3.13-3.13V346a3.13,3.13,0,0,1,3.13-3.13h14.31a3.13,3.13,0,0,1,3.13,3.13v14.31A3.13,3.13,0,0,1,238.73,363.39Zm-11.18-6.26h8v-8.05h-8Z"/><path class="cls-2" d="M267.54,356.06H248.76a3.13,3.13,0,0,1,0-6.26h18.78a3.13,3.13,0,0,1,0,6.26Z"/><rect class="cls-6" x="224.42" y="374.75" width="14.31" height="14.31"/><path class="cls-2" d="M238.73,392.18H224.42a3.13,3.13,0,0,1-3.13-3.13v-14.3a3.13,3.13,0,0,1,3.13-3.13h14.31a3.13,3.13,0,0,1,3.13,3.13v14.3A3.13,3.13,0,0,1,238.73,392.18Zm-11.18-6.26h8v-8.05h-8Z"/><path class="cls-2" d="M267.54,384.85H248.76a3.13,3.13,0,0,1,0-6.26h18.78a3.13,3.13,0,0,1,0,6.26Z"/><rect class="cls-6" x="224.42" y="403.54" width="14.31" height="14.31"/><path class="cls-2" d="M238.73,421H224.42a3.13,3.13,0,0,1-3.13-3.13v-14.3a3.13,3.13,0,0,1,3.13-3.13h14.31a3.13,3.13,0,0,1,3.13,3.13v14.3A3.13,3.13,0,0,1,238.73,421Zm-11.18-6.26h8v-8h-8Z"/><path class="cls-2" d="M267.54,413.64H248.76a3.13,3.13,0,0,1,0-6.26h18.78a3.13,3.13,0,0,1,0,6.26Z"/></svg>