<svg id="Calque_1" data-name="Calque 1" xmlns="http://www.w3.org/2000/svg" viewBox="0 0 500 500"><defs><style>.cls-1,.cls-4{fill:#1e1e1c;}.cls-1{opacity:0.5;}.cls-2{fill:#46b8a9;}.cls-3{fill:#ececec;}.cls-5{fill:#44797b;stroke:#1e1e1c;stroke-miterlimit:10;stroke-width:4.69px;}.cls-6{fill:#ff7276;}.cls-7{fill:#fff;}</style></defs><ellipse class="cls-1" cx="250.28" cy="393.82" rx="181.14" ry="37.04"/><path class="cls-2" d="M378.22,184.08c-.67,1.59-1.38,3.16-2.09,4.73-.14.31-.28.62-.44.93-.56,1.25-1.13,2.48-1.71,3.72l-.76,1.56c-.49,1-1,2-1.48,3-.3.6-.61,1.19-.92,1.79-.46.92-.92,1.84-1.4,2.76l-1,1.89-1.39,2.6c-.36.66-.73,1.3-1.09,1.95l-1.39,2.5-1.15,2c-.47.81-.94,1.63-1.42,2.43s-.8,1.33-1.21,2-.95,1.57-1.43,2.34-.84,1.35-1.26,2-1,1.53-1.46,2.29l-1.31,2c-.49.76-1,1.5-1.5,2.26s-.88,1.32-1.35,2L350.94,233c-.47.66-.93,1.31-1.41,2s-1,1.44-1.55,2.16l-1.43,1.95L345,241.2c-.48.65-1,1.28-1.46,1.93l-1.65,2.1c-.5.63-1,1.26-1.5,1.9l-1.68,2.06-1.55,1.88c-.56.67-1.13,1.35-1.71,2l-1.57,1.85-1.75,2c-.54.6-1.07,1.21-1.62,1.81l-1.79,2c-.55.59-1.08,1.19-1.65,1.78s-1.22,1.31-1.83,2l-1.66,1.74q-.94,1-1.89,1.92L320,269.85,318,271.76c-.57.54-1.13,1.1-1.72,1.67s-1.31,1.24-2,1.86l-1.74,1.64-2.05,1.86c-.57.53-1.15,1.06-1.74,1.58l-2.1,1.85c-.59.51-1.17,1-1.76,1.53s-1.44,1.23-2.16,1.83L301,287.07l-2.28,1.85L297,290.31c-.8.64-1.61,1.28-2.43,1.91L293,293.49c-.91.71-1.83,1.39-2.76,2.08l-1.36,1c-1.39,1-2.78,2-4.2,3s-2.9,2.05-4.38,3.06l-1.48,1c-1,.66-2,1.32-2.95,2-.58.38-1.17.74-1.76,1.12-.89.59-1.81,1.18-2.72,1.76l-1.87,1.13c-.88.55-1.76,1.11-2.66,1.65-.65.39-1.29.75-1.94,1.15-.87.5-1.75,1-2.62,1.54l-2.05,1.15-2.57,1.45-2.1,1.13c-.85.45-1.7.92-2.56,1.37-.7.37-1.43.74-2.15,1.1s-1.68.89-2.54,1.31l-2.2,1.08-2.53,1.24-2.24,1.05-2.54,1.18-2.28,1L234,328.19l-2.32,1c-.84.35-1.68.71-2.54,1.05l-2.35.94-2.53,1c-.79.31-1.6.6-2.4.91l-2.51.94-2.43.86c-.84.3-1.68.6-2.53.88l-2.45.83-2.53.83-2.5.78-2.51.77c-.84.26-1.68.49-2.52.75l-2.52.71-2.55.69c-.84.23-1.69.46-2.53.67s-1.71.44-2.58.65l-2.51.62-2.61.6c-.84.2-1.69.38-2.53.56s-1.75.38-2.62.56l-2.53.52-2.65.51-2.53.46-2.68.46c-.84.14-1.67.29-2.51.41l-2.72.42-2.5.35c-.91.13-1.82.26-2.75.37l-2.5.31-2.76.32-2.52.27-2.76.25-2.51.21-2.81.21c-.83.06-1.67.13-2.5.17l-2.82.15-2.51.13-2.84.1-2.22.06V392.1h94.59c32.63,0,61.44-6.73,85.62-20a141.71,141.71,0,0,0,56.15-55c13.24-23.39,20-50.53,20-80.67a170.27,170.27,0,0,0-8.67-55.17c-.39.92-.77,1.85-1.17,2.78Z"/><path class="cls-2" d="M274.13,90.11c-.06.58-.11,1.14-.18,1.72s-.14,1.23-.21,1.83-.16,1.14-.23,1.72-.17,1.23-.26,1.83-.17,1.13-.27,1.69l-.3,1.84c-.09.56-.21,1.12-.3,1.67s-.23,1.22-.36,1.84l-.33,1.65c-.13.6-.25,1.21-.39,1.83s-.26,1.09-.38,1.64-.28,1.2-.44,1.81-.28,1.08-.42,1.63-.31,1.19-.48,1.79-.29,1.08-.45,1.62-.35,1.19-.52,1.78-.32,1.08-.49,1.61-.38,1.18-.56,1.77L267,123c-.2.59-.41,1.18-.6,1.77l-.57,1.55c-.21.59-.43,1.17-.66,1.76s-.39,1-.58,1.55-.47,1.16-.71,1.73-.4,1-.63,1.53-.48,1.15-.73,1.73l-.67,1.51c-.25.58-.51,1.14-.77,1.7l-.71,1.52c-.26.56-.54,1.11-.82,1.67s-.48,1-.73,1.48-.58,1.11-.87,1.67-.51,1-.76,1.46-.6,1.11-.91,1.66-.54,1-.8,1.43-.63,1.1-1,1.64-.54,1-.83,1.42-.65,1.08-1,1.61-.57.94-.87,1.41-.69,1.06-1,1.6-.59.92-.89,1.37-.72,1.06-1.09,1.59-.6.9-.91,1.35-.76,1-1.12,1.57-.63.88-.95,1.32-.78,1-1.17,1.54l-1,1.29L242.5,168c-.34.41-.66.83-1,1.23s-.85,1-1.28,1.55-.67.81-1,1.22-.91,1-1.36,1.54-.66.78-1,1.15l-1.49,1.62c-.31.35-.62.7-.94,1-.56.59-1.12,1.18-1.7,1.75-.27.28-.53.58-.8.84-.86.86-1.7,1.71-2.57,2.56s-1.75,1.68-2.64,2.49l-.81.75L224,187.38l-1,.87-1.73,1.49c-.36.31-.73.6-1.09.9L218.5,192c-.38.31-.77.6-1.17.91s-1.1.87-1.67,1.29c-.39.31-.81.6-1.2.91l-1.67,1.24-1.25.88-1.67,1.18-1.29.87c-.56.38-1.11.76-1.67,1.12l-1.35.86c-.55.35-1.11.72-1.66,1.05l-1.39.85-1.65,1-1.43.83-1.66.94-1.46.8-1.65.88-1.51.78-1.65.84L190,210l-1.67.8-1.55.7-1.68.76-1.57.67-1.69.71-1.61.64c-.56.21-1.12.44-1.68.66l-1.65.6c-.56.22-1.1.41-1.67.62l-1.67.58-1.68.56-1.7.55c-.56.16-1.12.35-1.68.52l-1.71.5-1.7.48-1.74.46c-.56.16-1.12.3-1.69.44l-1.76.43c-.57.14-1.13.27-1.7.39l-1.78.4-1.7.35-1.8.35-1.7.31-1.82.31-1.7.26-1.84.27-1.71.22-1.85.23c-.58.07-1.14.13-1.72.18s-1.23.13-1.86.18-1.14.1-1.71.14-1.25.1-1.88.14-1.14.07-1.72.1l-1.59.09v66.07l1.64-.06c.81,0,1.61-.05,2.42-.1s1.62-.08,2.43-.14,1.62-.09,2.42-.15l2.41-.18,2.41-.21c.8-.09,1.59-.17,2.39-.24l2.4-.27,2.37-.29,2.39-.31,2.34-.35,2.4-.37,2.31-.39c.79-.14,1.59-.27,2.38-.42l2.3-.44,2.36-.47,2.3-.5c.77-.16,1.56-.33,2.33-.51s1.51-.36,2.26-.54l2.34-.57,2.23-.58c.77-.21,1.55-.41,2.32-.63l2.23-.63,2.29-.66c.74-.23,1.47-.45,2.2-.69s1.52-.46,2.27-.71l2.19-.73,2.25-.76,2.17-.77c.75-.27,1.49-.54,2.22-.82s1.43-.55,2.15-.81,1.47-.56,2.2-.86,1.43-.57,2.13-.87,1.45-.59,2.18-.9,1.42-.6,2.12-.91,1.43-.62,2.13-.94l2.11-1c.7-.32,1.4-.64,2.1-1s1.41-.67,2.09-1l2.08-1c.69-.35,1.38-.72,2.08-1.07l2-1c.69-.36,1.38-.74,2.06-1.11l2-1.09c.69-.38,1.36-.77,2-1.17l2-1.12,2-1.22c.63-.38,1.28-.76,1.91-1.15s1.36-.84,2-1.28,1.25-.77,1.88-1.18,1.34-.88,2-1.32,1.24-.8,1.84-1.22,1.33-.91,2-1.37,1.21-.82,1.8-1.24l2-1.43,1.74-1.26c.68-.49,1.34-1,2-1.5l1.65-1.27c.68-.52,1.34-1.05,2-1.57l1.62-1.28c.67-.54,1.33-1.09,2-1.64s1-.85,1.56-1.29c.67-.56,1.33-1.15,2-1.73l1.48-1.27c.68-.59,1.34-1.2,2-1.81.46-.42.94-.83,1.4-1.27.7-.63,1.38-1.27,2.06-1.92l1.3-1.22c.72-.69,1.44-1.4,2.14-2.11.38-.36.77-.72,1.15-1.1l2.28-2.33c.31-.33.63-.65.94-1,.84-.89,1.68-1.77,2.51-2.67.21-.24.43-.46.64-.69,1-1.05,1.91-2.1,2.85-3.17l.23-.25q4.59-5.22,8.84-10.75l.25-.32c.86-1.11,1.7-2.23,2.54-3.37l.58-.8c.71-1,1.43-2,2.13-3l.73-1.05c.63-.93,1.28-1.84,1.9-2.77l.84-1.28c.57-.87,1.15-1.72,1.71-2.61.29-.45.57-.91.86-1.37.54-.86,1.08-1.7,1.61-2.57l.88-1.49c.51-.83,1-1.67,1.5-2.51.3-.52.61-1.07.9-1.59l1.41-2.47c.29-.56.6-1.12.89-1.67.44-.81.89-1.62,1.32-2.44.3-.57.59-1.16.89-1.74.42-.81.84-1.63,1.23-2.44.31-.59.59-1.21.89-1.81.39-.8.78-1.6,1.16-2.41.3-.62.58-1.25.87-1.88.37-.8.73-1.59,1.08-2.4.3-.65.56-1.3.84-2s.69-1.57,1-2.37.55-1.34.81-2,.65-1.59,1-2.39.52-1.36.79-2.05.6-1.58.88-2.38.52-1.41.76-2.12l.84-2.36c.24-.72.48-1.46.72-2.19s.52-1.56.77-2.34.46-1.49.69-2.24.47-1.55.71-2.34.44-1.51.65-2.29.43-1.55.64-2.33.41-1.57.62-2.34.39-1.54.59-2.33.38-1.6.56-2.4.37-1.53.55-2.3.35-1.64.52-2.47l.27-1.32c-.31-.27-.62-.55-.94-.81A149.81,149.81,0,0,0,312,101.61,155.28,155.28,0,0,0,274.4,87.14l-.09,1.12C274.26,88.88,274.2,89.5,274.13,90.11Z"/><path class="cls-2" d="M135.25,220l1.66-.12,1.93-.17,1.66-.17,1.91-.21,1.65-.2,1.88-.25,1.66-.25,1.85-.3,1.66-.28,1.82-.34,1.66-.33c.6-.11,1.19-.24,1.78-.38s1.12-.24,1.67-.37,1.17-.26,1.76-.42,1.1-.26,1.65-.4,1.15-.3,1.73-.45l1.65-.45,1.7-.49,1.66-.49c.56-.17,1.11-.36,1.65-.52l1.67-.55,1.62-.55,1.65-.59c.54-.18,1.07-.38,1.6-.57l1.65-.64c.51-.19,1-.4,1.55-.61s1.1-.44,1.66-.66l1.51-.65,1.65-.71,1.48-.68,1.65-.76,1.44-.7c.55-.25,1.1-.52,1.63-.8l1.42-.71c.54-.28,1.09-.56,1.63-.86l1.37-.74,1.63-.89c.45-.25.88-.52,1.33-.77l1.62-.94,1.29-.77,1.62-1c.41-.26.82-.53,1.24-.78l1.63-1.06,1.19-.8,1.61-1.1c.4-.27.78-.54,1.17-.82l1.6-1.15,1.11-.81c.53-.41,1.08-.8,1.61-1.21l1-.8,1.64-1.29,1-.8c.56-.45,1.11-.9,1.65-1.36.3-.24.59-.51.89-.75.56-.49,1.12-1,1.68-1.46l.79-.71c.57-.51,1.15-1,1.72-1.56l.63-.6c.62-.56,1.23-1.14,1.83-1.73.13-.12.25-.25.38-.38a143.21,143.21,0,0,0,12.74-14.2l.35-.43c.52-.66,1-1.34,1.52-2,.18-.23.36-.46.53-.7.46-.62.91-1.25,1.36-1.88L244,159c.42-.61.85-1.21,1.25-1.83.23-.32.47-.64.68-1l1.16-1.78c.24-.36.48-.71.7-1.08.37-.57.73-1.16,1.1-1.75.24-.38.47-.76.7-1.14.35-.58.69-1.17,1-1.74.22-.41.46-.8.68-1.21.34-.56.65-1.15,1-1.72.24-.42.48-.83.7-1.25l.92-1.74c.22-.42.46-.86.68-1.29s.58-1.17.86-1.74.45-.89.66-1.34.55-1.16.83-1.74l.63-1.37c.27-.59.52-1.17.77-1.74s.41-1,.61-1.42.49-1.17.73-1.76l.58-1.44c.23-.58.45-1.17.68-1.74s.38-1,.56-1.5l.63-1.74c.18-.52.35-1,.53-1.53s.4-1.18.58-1.76.35-1,.5-1.55.37-1.18.55-1.77.31-1.06.47-1.59.33-1.16.49-1.75.31-1.08.45-1.63.29-1.18.44-1.75.27-1.11.41-1.68.27-1.16.39-1.75.26-1.12.38-1.68.24-1.2.35-1.79.23-1.13.34-1.71.21-1.18.32-1.78.2-1.15.28-1.73.2-1.19.29-1.78.16-1.16.25-1.75.15-1.21.24-1.8l.21-1.77c0-.6.12-1.2.18-1.81s.11-1.19.17-1.79.09-1.14.13-1.71a203.75,203.75,0,0,0-43.7-4.5h-8c0,.49-.07,1-.11,1.46-.07.75-.14,1.48-.22,2.21s-.2,1.64-.31,2.45-.2,1.43-.31,2.15-.29,1.63-.45,2.44-.25,1.39-.41,2.08-.36,1.63-.56,2.43-.32,1.34-.5,2-.45,1.61-.69,2.42c-.18.65-.38,1.3-.57,1.94-.27.81-.55,1.61-.83,2.41-.21.62-.42,1.25-.66,1.87-.3.8-.62,1.6-.94,2.4-.24.59-.48,1.19-.73,1.77-.35.81-.72,1.6-1.08,2.4-.27.56-.52,1.12-.79,1.68-.39.82-.81,1.6-1.23,2.4-.27.52-.54,1.06-.82,1.58-.45.81-.92,1.61-1.39,2.41-.29.48-.56,1-.85,1.44-.51.83-1,1.65-1.58,2.45-.28.43-.54.87-.84,1.3-.57.86-1.19,1.69-1.79,2.53-.27.36-.52.73-.79,1.09-.69.91-1.39,1.8-2.1,2.68-.23.27-.43.55-.65.8-.9,1.1-1.81,2.15-2.75,3.19-.06,0-.1.11-.16.17q-3,3.32-6.34,6.34l-.22.21c-1,.91-2.07,1.83-3.13,2.71-.28.22-.56.43-.84.66-.87.71-1.76,1.4-2.64,2.08l-1.15.82c-.82.59-1.65,1.2-2.47,1.76-.45.31-.92.59-1.37.88-.78.52-1.57,1-2.38,1.53-.49.31-1,.59-1.5.89-.79.46-1.56.92-2.36,1.36-.53.29-1.08.56-1.63.85-.77.4-1.54.82-2.33,1.2l-1.75.81c-.77.35-1.55.72-2.33,1.05-.61.27-1.22.51-1.84.76-.77.31-1.56.62-2.34.91s-1.28.47-1.93.69-1.55.55-2.34.8-1.33.41-2,.6-1.57.45-2.35.66-1.39.35-2.08.52-1.57.38-2.37.55-1.44.29-2.15.42-1.57.31-2.37.44l-2.21.32-2.4.31c-.74.08-1.5.15-2.26.21l-1.42.11v52l1.5-.08C133.94,220.1,134.59,220.05,135.25,220Z"/><path class="cls-2" d="M135,163.55c.77-.08,1.55-.18,2.32-.29l2.07-.31,2.28-.41c.69-.12,1.36-.26,2-.4s1.48-.34,2.23-.52l2-.49c.73-.2,1.46-.43,2.19-.64s1.32-.38,2-.59,1.42-.47,2.14-.73,1.3-.44,1.93-.68l2.08-.82,1.92-.78c.68-.3,1.34-.61,2-.92s1.26-.57,1.88-.88,1.3-.66,1.95-1l1.82-1c.65-.35,1.27-.73,1.9-1.09s1.21-.69,1.8-1.06l1.82-1.16c.58-.38,1.17-.75,1.74-1.14s1.17-.83,1.75-1.25l1.69-1.2c.57-.44,1.14-.9,1.7-1.35s1.09-.84,1.62-1.28,1.1-1,1.63-1.42,1.06-.89,1.56-1.36,1.08-1,1.63-1.54c.94-.91,1.88-1.84,2.79-2.79.51-.54,1-1.06,1.52-1.59s.92-1.07,1.39-1.6.92-1.05,1.37-1.6.89-1.11,1.33-1.67.87-1.08,1.3-1.64l1.24-1.74c.41-.56.82-1.12,1.23-1.71s.77-1.18,1.15-1.77.77-1.2,1.15-1.8.71-1.21,1.06-1.82.72-1.22,1.07-1.84.66-1.25,1-1.88l1-1.91c.3-.63.58-1.28.88-1.92s.62-1.31.9-2,.53-1.3.8-2,.54-1.35.8-2,.47-1.34.71-2,.48-1.39.71-2.09.4-1.35.61-2,.41-1.42.61-2.13.35-1.38.5-2.07.35-1.45.51-2.18.29-1.39.42-2.1.28-1.47.39-2.23.22-1.4.32-2.1.2-1.52.28-2.29.16-1.42.21-2.13c0-.37.06-.73.09-1.1H131.79v82.23c.37,0,.75,0,1.12-.09C133.61,163.69,134.31,163.64,135,163.55Z"/><path class="cls-2" d="M339.84,123.81c-.19.77-.35,1.54-.54,2.31s-.38,1.52-.56,2.28l-.59,2.31c-.19.76-.4,1.51-.61,2.26s-.43,1.53-.64,2.3-.43,1.49-.66,2.25-.44,1.52-.68,2.27-.47,1.49-.7,2.23-.5,1.51-.75,2.26-.49,1.48-.74,2.21-.52,1.5-.79,2.24l-.8,2.19c-.28.76-.55,1.5-.83,2.23l-.84,2.18c-.29.73-.59,1.47-.88,2.22l-.89,2.13c-.31.74-.61,1.47-.94,2.2s-.61,1.42-.92,2.12-.65,1.46-1,2.19l-1,2.09c-.34.72-.69,1.45-1,2.16s-.66,1.38-1,2.07-.73,1.44-1.09,2.16-.69,1.36-1,2l-1.14,2.14-1.09,2c-.38.72-.79,1.42-1.18,2.12l-1.12,2c-.41.7-.82,1.4-1.24,2.09s-.77,1.31-1.16,1.95-.86,1.39-1.28,2.09-.8,1.28-1.21,1.91-.88,1.38-1.33,2.07-.82,1.26-1.24,1.88-.91,1.36-1.39,2-.82,1.24-1.26,1.84-1,1.35-1.43,2-.87,1.23-1.31,1.83-1,1.33-1.48,2l-1.34,1.78c-.5.66-1,1.32-1.54,2l-1.35,1.72c-.53.66-1.06,1.32-1.61,2l-1.38,1.69c-.54.66-1.11,1.3-1.65,2s-.94,1.11-1.41,1.64-1.15,1.3-1.72,2-.94,1.07-1.42,1.58l-1.8,2-1.43,1.53c-.62.64-1.23,1.29-1.86,1.93l-1.44,1.48-1.95,1.93-1.43,1.41c-.69.67-1.39,1.33-2.09,2l-1.36,1.28c-.77.73-1.57,1.43-2.36,2.14-.39.35-.77.72-1.16,1.06-1.2,1.06-2.39,2.1-3.61,3.12s-2.47,2.1-3.73,3.12l-1.11.88c-.9.72-1.78,1.42-2.68,2.12L258.69,250l-2.48,1.88-1.5,1.09c-.8.58-1.6,1.17-2.42,1.74-.52.37-1,.73-1.57,1.08-.8.56-1.58,1.12-2.4,1.66-.53.36-1.08.71-1.61,1.08-.8.53-1.6,1.07-2.42,1.58-.54.36-1.1.71-1.67,1.06-.8.5-1.58,1-2.4,1.5l-1.72,1c-.8.47-1.6,1-2.4,1.43-.59.35-1.18.67-1.77,1-.8.46-1.6.93-2.41,1.37-.59.33-1.2.65-1.8,1-.81.45-1.61.89-2.43,1.32l-1.82.93L223.43,272l-1.86.9L219.1,274l-1.88.87-2.48,1.14-1.91.83-2.48,1.06c-.65.28-1.31.54-2,.8-.82.34-1.65.69-2.48,1-.66.27-1.32.51-2,.76l-2.5,1c-.67.25-1.34.47-2,.73l-2.49.88-2,.69-2.51.83-2.06.64-2.52.77-2.1.61-2.5.7-2.13.57c-.85.23-1.67.44-2.52.65l-2.16.53-2.49.59-2.19.48-2.52.53c-.73.16-1.46.3-2.2.44s-1.67.32-2.51.48l-2.23.39-2.5.42-2.26.34-2.5.36-2.29.3q-1.23.17-2.49.3c-.76.1-1.53.17-2.31.26l-2.49.25-2.33.2c-.82.07-1.65.14-2.47.19l-2.36.16-2.47.14-2.37.1-1.61.05v51l2.3-.07c.84,0,1.68-.05,2.51-.09l2.72-.13c.84-.06,1.7-.1,2.55-.15l2.66-.19c.87-.05,1.72-.12,2.59-.19s1.73-.14,2.58-.23l2.64-.25c.85-.08,1.69-.18,2.53-.28l2.68-.31,2.46-.31,2.72-.36,2.4-.35c.92-.14,1.84-.28,2.76-.44l2.32-.38,2.81-.49,2.24-.42,2.86-.56,2.16-.45,2.92-.62,2.08-.48c1-.22,2-.44,3-.68l2-.51,3-.76c.65-.16,1.29-.35,1.92-.52,1-.28,2.05-.54,3.06-.84l1.84-.53,3.12-.91q.85-.29,1.74-.54l3.16-1c.56-.19,1.1-.38,1.67-.56l3.21-1.08,1.57-.55c1.1-.38,2.18-.77,3.26-1.17.5-.18,1-.38,1.5-.56l3.3-1.25,1.4-.54,3.35-1.35,1.32-.55,3.4-1.43c.41-.18.81-.37,1.22-.53,1.15-.51,2.32-1,3.45-1.55l1.14-.52c1.17-.53,2.33-1.08,3.49-1.62l1-.51c1.2-.58,2.38-1.15,3.55-1.74.33-.15.64-.31.94-.48,1.21-.6,2.42-1.22,3.61-1.84l.84-.44c1.22-.65,2.44-1.3,3.65-2,.25-.13.49-.28.75-.41,1.23-.68,2.47-1.37,3.69-2.07l.66-.38c1.26-.72,2.49-1.45,3.74-2.19l.55-.34q1.92-1.14,3.79-2.3a4.21,4.21,0,0,1,.45-.28q1.94-1.21,3.86-2.46a1.61,1.61,0,0,1,.31-.19c1.32-.86,2.62-1.73,3.93-2.61l.19-.14q2-1.35,4-2.74s0,0,.07-.06a272,272,0,0,0,73.2-76.54,1.3,1.3,0,0,0,.1-.15q1.22-1.92,2.4-3.85l.33-.55c.73-1.19,1.44-2.38,2.15-3.59l.51-.87c.67-1.13,1.32-2.27,2-3.42.2-.37.41-.72.62-1.08l1.78-3.29c.24-.43.48-.85.7-1.29.56-1.05,1.11-2.1,1.65-3.16.25-.49.51-1,.75-1.46.52-1,1-2,1.52-3.05.27-.55.55-1.09.81-1.63.48-1,.94-2,1.41-3,.26-.59.54-1.18.82-1.77L373,185l.84-1.88c.41-1,.82-1.91,1.21-2.86.28-.66.57-1.32.84-2,.39-.92.76-1.86,1.14-2.8.05-.14.11-.29.17-.43-.49-1.23-1-2.45-1.5-3.66a138.46,138.46,0,0,0-7.53-15.2c-1-1.76-2.05-3.48-3.12-5.18-.36-.57-.73-1.12-1.09-1.67-.74-1.13-1.48-2.26-2.24-3.36-.45-.65-.91-1.29-1.37-1.93-.71-1-1.42-2-2.15-2.94l-1.53-2c-.73-.92-1.46-1.83-2.21-2.73-.53-.65-1.07-1.3-1.62-1.94-.77-.9-1.55-1.77-2.33-2.64-.56-.62-1.11-1.24-1.67-1.84-.85-.91-1.71-1.79-2.58-2.67-.53-.54-1.05-1.09-1.59-1.61-1.14-1.13-2.31-2.22-3.5-3.31-.28-.26-.55-.53-.84-.79h0C340.17,122.35,340,123.07,339.84,123.81Z"/><path class="cls-3" d="M270,87.83c-.06.6-.11,1.19-.17,1.79s-.13,1.21-.18,1.81l-.21,1.77c-.09.59-.16,1.19-.24,1.8s-.17,1.16-.25,1.75-.19,1.19-.29,1.78-.18,1.15-.28,1.73-.21,1.19-.32,1.78-.22,1.15-.34,1.71-.22,1.2-.35,1.79-.25,1.12-.38,1.68-.26,1.18-.39,1.75-.28,1.11-.41,1.68-.29,1.16-.44,1.75-.3,1.08-.45,1.63-.33,1.16-.49,1.75-.31,1.07-.47,1.59-.36,1.18-.55,1.77-.33,1-.5,1.55-.38,1.17-.58,1.76-.35,1-.53,1.53l-.63,1.74c-.18.5-.38,1-.56,1.5s-.45,1.16-.68,1.74l-.58,1.44c-.24.59-.48,1.17-.73,1.76s-.41.94-.61,1.42-.5,1.15-.77,1.74l-.63,1.37c-.28.58-.55,1.17-.83,1.74s-.43.89-.66,1.34-.56,1.16-.86,1.74-.46.87-.68,1.29l-.92,1.74c-.22.42-.46.83-.7,1.25-.32.57-.63,1.16-1,1.72-.22.41-.46.8-.68,1.21-.35.57-.69,1.16-1,1.74-.23.38-.46.76-.7,1.14-.37.59-.73,1.18-1.1,1.75-.22.37-.46.72-.7,1.08l-1.16,1.78c-.21.33-.45.65-.68,1-.4.62-.83,1.22-1.25,1.83l-.63.87c-.45.63-.9,1.26-1.36,1.88-.17.24-.35.47-.53.7-.51.67-1,1.35-1.52,2l-.35.43a143.21,143.21,0,0,1-12.74,14.2c-.13.13-.25.26-.38.38-.6.59-1.21,1.17-1.83,1.73l-.63.6c-.57.53-1.15,1.05-1.72,1.56l-.79.71c-.56.5-1.12,1-1.68,1.46-.3.24-.59.51-.89.75-.54.46-1.09.91-1.65,1.36l-1,.8-1.64,1.29-1,.8c-.53.41-1.08.8-1.61,1.21l-1.11.81-1.6,1.15c-.39.28-.77.55-1.17.82l-1.61,1.1-1.19.8-1.63,1.06c-.42.25-.83.52-1.24.78l-1.62,1-1.29.77L198,201c-.45.25-.88.52-1.33.77l-1.63.89-1.37.74c-.54.3-1.09.58-1.63.86l-1.42.71c-.53.28-1.08.55-1.63.8l-1.44.7-1.65.76-1.48.68-1.65.71-1.51.65c-.56.22-1.11.43-1.66.66s-1,.42-1.55.61l-1.65.64c-.53.19-1.06.39-1.6.57l-1.65.59-1.62.55-1.67.55c-.54.16-1.09.35-1.65.52l-1.66.49-1.7.49-1.65.45c-.58.15-1.15.31-1.73.45s-1.09.28-1.65.4-1.17.28-1.76.42-1.11.26-1.67.37-1.18.27-1.78.38l-1.66.33-1.82.34-1.66.28-1.85.3-1.66.25-1.88.25-1.65.2-1.91.21-1.66.17-1.93.17-1.66.12c-.66,0-1.31.09-2,.11l-1.5.08v4.39l1.59-.09c.58,0,1.15-.05,1.72-.1s1.24-.08,1.88-.14,1.15-.08,1.71-.14,1.25-.11,1.86-.18,1.14-.11,1.72-.18l1.85-.23,1.71-.22,1.84-.27,1.7-.26,1.82-.31,1.7-.31,1.8-.35,1.7-.35,1.78-.4c.57-.12,1.13-.25,1.7-.39l1.76-.43c.57-.14,1.13-.28,1.69-.44l1.74-.46,1.7-.48,1.71-.5c.56-.17,1.12-.36,1.68-.52l1.7-.55,1.68-.56,1.67-.58c.57-.21,1.11-.4,1.67-.62l1.65-.6c.56-.22,1.12-.45,1.68-.66l1.61-.64,1.69-.71,1.57-.67,1.68-.76,1.55-.7L190,210l1.53-.74,1.65-.84,1.51-.78,1.65-.88,1.46-.8,1.66-.94,1.43-.83,1.65-1,1.39-.85c.55-.33,1.11-.7,1.66-1.05l1.35-.86c.56-.36,1.11-.74,1.67-1.12l1.29-.87,1.67-1.18,1.25-.88,1.67-1.24c.39-.31.81-.6,1.2-.91.57-.42,1.13-.85,1.67-1.29s.79-.6,1.17-.91l1.7-1.39c.36-.3.73-.59,1.09-.9l1.73-1.49,1-.87,1.88-1.68.81-.75c.89-.81,1.77-1.65,2.64-2.49s1.71-1.7,2.57-2.56c.27-.26.53-.56.8-.84.58-.57,1.14-1.16,1.7-1.75.32-.34.63-.69.94-1l1.49-1.62c.33-.37.66-.75,1-1.15s.91-1,1.36-1.54.68-.81,1-1.22.86-1,1.28-1.55.66-.82,1-1.23l1.22-1.56,1-1.29c.39-.52.79-1,1.17-1.54s.63-.89.95-1.32.74-1.05,1.12-1.57.62-.9.91-1.35.73-1.05,1.09-1.59.6-.91.89-1.37.71-1.07,1-1.6.58-.93.87-1.41.66-1.06,1-1.61.57-.94.83-1.42.65-1.08,1-1.64.53-.95.8-1.43.61-1.09.91-1.66.5-1,.76-1.46.59-1.1.87-1.67.49-1,.73-1.48.56-1.11.82-1.67l.71-1.52c.26-.56.52-1.12.77-1.7l.67-1.51c.25-.58.49-1.15.73-1.73s.44-1,.63-1.53.48-1.15.71-1.73.39-1,.58-1.55.45-1.17.66-1.76l.57-1.55c.19-.59.4-1.18.6-1.77l.53-1.59c.18-.59.38-1.18.56-1.77s.33-1.08.49-1.61.36-1.18.52-1.78.31-1.08.45-1.62.33-1.19.48-1.79.28-1.1.42-1.63.3-1.21.44-1.81.25-1.1.38-1.64.26-1.23.39-1.83l.33-1.65c.13-.62.24-1.23.36-1.84s.21-1.11.3-1.67l.3-1.84c.1-.56.18-1.12.27-1.69s.18-1.22.26-1.83.16-1.14.23-1.72.14-1.22.21-1.83.12-1.14.18-1.72.13-1.23.18-1.85l.09-1.12c-1.08-.27-2.16-.55-3.26-.8l-1.06-.22C270,86.69,270,87.26,270,87.83Z"/><path class="cls-3" d="M135.47,167.92l2.4-.31,2.21-.32c.8-.13,1.58-.28,2.37-.44s1.44-.27,2.15-.42,1.58-.35,2.37-.55,1.39-.33,2.08-.52,1.57-.43,2.35-.66,1.35-.39,2-.6,1.57-.53,2.34-.8,1.29-.45,1.93-.69,1.57-.6,2.34-.91c.62-.25,1.23-.49,1.84-.76.78-.33,1.56-.7,2.33-1.05l1.75-.81c.79-.38,1.56-.8,2.33-1.2.55-.29,1.1-.56,1.63-.85.8-.44,1.57-.9,2.36-1.36.5-.3,1-.58,1.5-.89.81-.49,1.6-1,2.38-1.53.45-.29.92-.57,1.37-.88.82-.56,1.65-1.17,2.47-1.76l1.15-.82c.88-.68,1.77-1.37,2.64-2.08.28-.23.56-.44.84-.66,1.06-.88,2.1-1.8,3.13-2.71l.22-.21q3.33-3,6.34-6.34c.06-.06.1-.12.16-.17.94-1,1.85-2.09,2.75-3.19.22-.25.42-.53.65-.8.71-.88,1.41-1.77,2.1-2.68.27-.36.52-.73.79-1.09.6-.84,1.22-1.67,1.79-2.53.3-.43.56-.87.84-1.3.54-.8,1.07-1.62,1.58-2.45.29-.47.56-1,.85-1.44.47-.8.94-1.6,1.39-2.41.28-.52.55-1.06.82-1.58.42-.8.84-1.58,1.23-2.4.27-.56.52-1.12.79-1.68.36-.8.73-1.59,1.08-2.4.25-.58.49-1.18.73-1.77.32-.8.64-1.6.94-2.4.24-.62.45-1.25.66-1.87.28-.8.56-1.6.83-2.41.19-.64.39-1.29.57-1.94.24-.81.48-1.61.69-2.42s.34-1.35.5-2,.4-1.62.56-2.43.29-1.39.41-2.08.31-1.63.45-2.44.21-1.43.31-2.15.22-1.64.31-2.45.15-1.46.22-2.21c0-.48.08-1,.11-1.46H214c0,.37,0,.73-.09,1.1,0,.71-.12,1.43-.21,2.13s-.18,1.53-.28,2.29-.19,1.4-.32,2.1-.25,1.49-.39,2.23-.27,1.41-.42,2.1-.33,1.46-.51,2.18-.32,1.38-.5,2.07-.41,1.42-.61,2.13-.4,1.35-.61,2-.47,1.39-.71,2.09-.46,1.34-.71,2-.54,1.34-.8,2-.52,1.32-.8,2-.59,1.32-.9,2-.58,1.29-.88,1.92l-1,1.91c-.32.63-.64,1.25-1,1.88s-.7,1.22-1.07,1.84-.7,1.22-1.06,1.82-.77,1.19-1.15,1.8-.76,1.19-1.15,1.77-.82,1.15-1.23,1.71l-1.24,1.74c-.43.56-.87,1.09-1.3,1.64s-.87,1.12-1.33,1.67-.91,1.07-1.37,1.6-.92,1.08-1.39,1.6-1,1.05-1.52,1.59c-.91.95-1.85,1.88-2.79,2.79-.55.52-1.07,1.05-1.63,1.54s-1,.91-1.56,1.36-1.08,1-1.63,1.42-1.08.86-1.62,1.28-1.13.91-1.7,1.35l-1.69,1.2c-.58.42-1.16.84-1.75,1.25s-1.16.76-1.74,1.14L171.56,151c-.59.37-1.2.7-1.8,1.06s-1.25.74-1.9,1.09l-1.82,1c-.65.34-1.29.69-1.95,1s-1.25.59-1.88.88-1.33.62-2,.92l-1.92.78-2.08.82c-.63.24-1.29.46-1.93.68s-1.42.5-2.14.73-1.32.4-2,.59-1.46.44-2.19.64l-2,.49c-.75.18-1.49.36-2.23.52s-1.36.28-2,.4l-2.28.41-2.07.31c-.77.11-1.55.21-2.32.29s-1.4.14-2.1.21c-.37,0-.75.06-1.12.09v4.39l1.42-.11C134,168.07,134.73,168,135.47,167.92Z"/><path class="cls-3" d="M336.26,119.67c-.17.83-.35,1.64-.52,2.47s-.37,1.53-.55,2.3-.36,1.6-.56,2.4-.39,1.56-.59,2.33-.41,1.56-.62,2.34-.42,1.56-.64,2.33-.42,1.53-.65,2.29-.47,1.56-.71,2.34-.45,1.49-.69,2.24-.51,1.57-.77,2.34-.48,1.47-.72,2.19l-.84,2.36c-.24.71-.49,1.41-.76,2.12s-.59,1.58-.88,2.38-.52,1.38-.79,2.05-.64,1.59-1,2.39-.53,1.33-.81,2-.67,1.59-1,2.37-.54,1.31-.84,2c-.35.81-.71,1.6-1.08,2.4-.29.63-.57,1.26-.87,1.88-.38.81-.77,1.61-1.16,2.41-.3.6-.58,1.22-.89,1.81-.39.81-.81,1.63-1.23,2.44-.3.58-.59,1.17-.89,1.74-.43.82-.88,1.63-1.32,2.44-.29.55-.6,1.11-.89,1.67l-1.41,2.47c-.29.52-.6,1.07-.9,1.59-.49.84-1,1.68-1.5,2.51l-.88,1.49c-.53.87-1.07,1.71-1.61,2.57-.29.46-.57.92-.86,1.37-.56.89-1.14,1.74-1.71,2.61l-.84,1.28c-.62.93-1.27,1.84-1.9,2.77l-.73,1.05c-.7,1-1.42,2-2.13,3l-.58.8c-.84,1.14-1.68,2.26-2.54,3.37l-.25.32q-4.26,5.52-8.84,10.75l-.23.25c-.94,1.07-1.89,2.12-2.85,3.17-.21.23-.43.45-.64.69-.83.9-1.67,1.78-2.51,2.67-.31.32-.63.64-.94,1l-2.28,2.33c-.38.38-.77.74-1.15,1.1-.7.71-1.42,1.42-2.14,2.11l-1.3,1.22c-.68.65-1.36,1.29-2.06,1.92-.46.44-.94.85-1.4,1.27-.68.61-1.34,1.22-2,1.81l-1.48,1.27c-.67.58-1.33,1.17-2,1.73-.52.44-1,.86-1.56,1.29s-1.32,1.1-2,1.64l-1.62,1.28c-.67.52-1.33,1.05-2,1.57l-1.65,1.27c-.67.5-1.33,1-2,1.5l-1.74,1.26-2,1.43c-.59.42-1.19.83-1.8,1.24s-1.32.92-2,1.37-1.22.82-1.84,1.22-1.33.89-2,1.32-1.24.79-1.88,1.18-1.34.86-2,1.28-1.28.77-1.91,1.15l-2,1.22-2,1.12c-.68.4-1.35.79-2,1.17l-2,1.09c-.68.37-1.37.75-2.06,1.11l-2,1c-.7.35-1.39.72-2.08,1.07l-2.08,1c-.68.34-1.39.69-2.09,1s-1.4.66-2.1,1l-2.11,1c-.7.32-1.42.63-2.13.94s-1.42.62-2.12.91-1.45.61-2.18.9-1.41.59-2.13.87-1.46.58-2.2.86-1.43.55-2.15.81-1.47.55-2.22.82l-2.17.77-2.25.76-2.19.73c-.75.25-1.51.47-2.27.71s-1.46.46-2.2.69l-2.29.66-2.23.63c-.77.22-1.55.42-2.32.63l-2.23.58-2.34.57c-.75.18-1.5.37-2.26.54s-1.56.35-2.33.51l-2.3.5-2.36.47-2.3.44c-.79.15-1.59.28-2.38.42l-2.31.39-2.4.37-2.34.35-2.39.31-2.37.29-2.4.27c-.8.07-1.59.15-2.39.24l-2.41.21-2.41.18c-.8.06-1.62.11-2.42.15s-1.61.1-2.43.14-1.61.07-2.42.1l-1.64.06v4.39l1.61-.05,2.37-.1,2.47-.14,2.36-.16c.82-.05,1.65-.12,2.47-.19l2.33-.2,2.49-.25c.78-.09,1.55-.16,2.31-.26s1.67-.19,2.49-.3l2.29-.3,2.5-.36,2.26-.34,2.5-.42,2.23-.39c.84-.16,1.68-.31,2.51-.48s1.47-.28,2.2-.44l2.52-.53,2.19-.48,2.49-.59,2.16-.53c.85-.21,1.67-.42,2.52-.65l2.13-.57,2.5-.7,2.1-.61,2.52-.77,2.06-.64,2.51-.83,2-.69,2.49-.88c.68-.26,1.35-.48,2-.73l2.5-1c.66-.25,1.32-.49,2-.76.83-.32,1.66-.67,2.48-1,.65-.26,1.31-.52,2-.8l2.48-1.06,1.91-.83,2.48-1.14,1.88-.87,2.47-1.19,1.86-.9,2.44-1.26,1.82-.93c.82-.43,1.62-.87,2.43-1.32.6-.32,1.21-.64,1.8-1,.81-.44,1.61-.91,2.41-1.37.59-.34,1.18-.66,1.77-1,.8-.46,1.6-1,2.4-1.43l1.72-1c.82-.49,1.6-1,2.4-1.5.57-.35,1.13-.7,1.67-1.06.82-.51,1.62-1.05,2.42-1.58.53-.37,1.08-.72,1.61-1.08.82-.54,1.6-1.1,2.4-1.66.52-.35,1.05-.71,1.57-1.08.82-.57,1.62-1.16,2.42-1.74l1.5-1.09,2.48-1.88,1.38-1.06c.9-.7,1.78-1.4,2.68-2.12l1.11-.88q1.89-1.53,3.73-3.12c1.22-1,2.41-2.06,3.61-3.12.39-.34.77-.71,1.16-1.06.79-.71,1.59-1.41,2.36-2.14l1.36-1.28c.7-.66,1.4-1.32,2.09-2l1.43-1.41,1.95-1.93,1.44-1.48c.63-.64,1.24-1.29,1.86-1.93l1.43-1.53,1.8-2c.48-.51.94-1.05,1.42-1.58s1.15-1.29,1.72-2,.93-1.1,1.41-1.64,1.11-1.29,1.65-2l1.38-1.69c.55-.66,1.08-1.32,1.61-2l1.35-1.72c.52-.68,1-1.34,1.54-2l1.34-1.78c.5-.66,1-1.33,1.48-2s.87-1.21,1.31-1.83.95-1.33,1.43-2,.86-1.22,1.26-1.84.94-1.36,1.39-2,.83-1.25,1.24-1.88.9-1.38,1.33-2.07.8-1.27,1.21-1.91.85-1.39,1.28-2.09.78-1.29,1.16-1.95.83-1.39,1.24-2.09l1.12-2c.39-.7.8-1.4,1.18-2.12l1.09-2,1.14-2.14c.35-.67.7-1.36,1-2s.73-1.43,1.09-2.16.67-1.38,1-2.07.7-1.44,1-2.16l1-2.09c.34-.73.66-1.46,1-2.19s.61-1.4.92-2.12.63-1.46.94-2.2l.89-2.13c.29-.75.59-1.49.88-2.22l.84-2.18c.28-.73.55-1.47.83-2.23l.8-2.19c.27-.74.52-1.48.79-2.24s.5-1.46.74-2.21.51-1.51.75-2.26.47-1.48.7-2.23.46-1.51.68-2.27.45-1.5.66-2.25.43-1.53.64-2.3.42-1.5.61-2.26l.59-2.31c.18-.76.38-1.52.56-2.28s.35-1.54.54-2.31.33-1.46.49-2.19c-1.24-1.12-2.51-2.2-3.8-3.27Z"/><path class="cls-3" d="M377,175.5c-.38.94-.75,1.88-1.14,2.8-.27.68-.56,1.34-.84,2-.39.95-.8,1.9-1.21,2.86L373,185l-1.31,2.9c-.28.59-.56,1.18-.82,1.77-.47,1-.93,2-1.41,3-.26.54-.54,1.08-.81,1.63-.49,1-1,2-1.52,3.05-.24.48-.5,1-.75,1.46-.54,1.06-1.09,2.11-1.65,3.16-.22.44-.46.86-.7,1.29l-1.78,3.29c-.21.36-.42.71-.62,1.08-.64,1.15-1.29,2.29-2,3.42l-.51.87c-.71,1.21-1.42,2.4-2.15,3.59l-.33.55q-1.19,1.93-2.4,3.85a1.3,1.3,0,0,1-.1.15A272,272,0,0,1,281,296.62s0,.05-.07.06q-2,1.4-4,2.74l-.19.14c-1.31.88-2.61,1.75-3.93,2.61a1.61,1.61,0,0,0-.31.19q-1.92,1.25-3.86,2.46a4.21,4.21,0,0,0-.45.28q-1.87,1.15-3.79,2.3l-.55.34c-1.25.74-2.48,1.47-3.74,2.19l-.66.38c-1.22.7-2.46,1.39-3.69,2.07-.26.13-.5.28-.75.41-1.21.67-2.43,1.32-3.65,2l-.84.44c-1.19.62-2.4,1.24-3.61,1.84-.3.17-.61.33-.94.48-1.17.59-2.35,1.16-3.55,1.74l-1,.51c-1.16.54-2.32,1.09-3.49,1.62l-1.14.52c-1.13.52-2.3,1-3.45,1.55-.41.16-.81.35-1.22.53l-3.4,1.43-1.32.55L224,327.32l-1.4.54-3.3,1.25c-.51.18-1,.38-1.5.56-1.08.4-2.16.79-3.26,1.17l-1.57.55-3.21,1.08c-.57.18-1.11.37-1.67.56l-3.16,1q-.88.25-1.74.54l-3.12.91-1.84.53c-1,.3-2,.56-3.06.84-.63.17-1.27.36-1.92.52l-3,.76-2,.51c-1,.24-2,.46-3,.68l-2.08.48-2.92.62-2.16.45-2.86.56-2.24.42-2.81.49-2.32.38c-.92.16-1.84.3-2.76.44l-2.4.35-2.72.36-2.46.31-2.68.31c-.84.1-1.68.2-2.53.28l-2.64.25c-.85.09-1.72.16-2.58.23s-1.72.14-2.59.19l-2.66.19c-.85.05-1.71.09-2.55.15l-2.72.13c-.83,0-1.67.07-2.51.09l-2.3.07v4.39l2.22-.06,2.84-.1,2.51-.13,2.82-.15c.83,0,1.67-.11,2.5-.17l2.81-.21,2.51-.21,2.76-.25,2.52-.27,2.76-.32,2.5-.31c.93-.11,1.84-.24,2.75-.37l2.5-.35,2.72-.42c.84-.12,1.67-.27,2.51-.41l2.68-.46,2.53-.46,2.65-.51,2.53-.52c.87-.18,1.75-.36,2.62-.56s1.69-.36,2.53-.56l2.61-.6,2.51-.62c.87-.21,1.73-.42,2.58-.65s1.69-.44,2.53-.67l2.55-.69,2.52-.71c.84-.26,1.68-.49,2.52-.75l2.51-.77,2.5-.78,2.53-.83,2.45-.83c.85-.28,1.69-.58,2.53-.88l2.43-.86,2.51-.94c.8-.31,1.61-.6,2.4-.91l2.53-1,2.35-.94c.86-.34,1.7-.7,2.54-1.05l2.32-1,2.52-1.11,2.28-1,2.54-1.18,2.24-1.05,2.53-1.24,2.2-1.08c.86-.42,1.7-.87,2.54-1.31s1.45-.73,2.15-1.1c.86-.45,1.71-.92,2.56-1.37l2.1-1.13,2.57-1.45,2.05-1.15c.87-.5,1.75-1,2.62-1.54.65-.4,1.29-.76,1.94-1.15.9-.54,1.78-1.1,2.66-1.65l1.87-1.13c.91-.58,1.83-1.17,2.72-1.76.59-.38,1.18-.74,1.76-1.12,1-.64,2-1.3,2.95-2l1.48-1q2.22-1.51,4.38-3.06c1.42-1,2.81-2,4.2-3l1.36-1c.93-.69,1.85-1.37,2.76-2.08l1.63-1.27c.82-.63,1.63-1.27,2.43-1.91l1.71-1.39,2.28-1.85,1.76-1.49c.72-.6,1.45-1.21,2.16-1.83s1.17-1,1.76-1.53l2.1-1.85c.59-.52,1.17-1.05,1.74-1.58l2.05-1.86,1.74-1.64c.66-.62,1.32-1.23,2-1.86s1.15-1.13,1.72-1.67l1.94-1.91,1.69-1.72q.94-.94,1.89-1.92l1.66-1.74c.61-.64,1.23-1.3,1.83-2s1.1-1.19,1.65-1.78l1.79-2c.55-.6,1.08-1.21,1.62-1.81l1.75-2,1.57-1.85c.58-.67,1.15-1.35,1.71-2l1.55-1.88,1.68-2.06c.49-.64,1-1.27,1.5-1.9l1.65-2.1c.49-.65,1-1.28,1.46-1.93l1.6-2.13,1.43-1.95c.53-.72,1-1.45,1.55-2.16s.94-1.31,1.41-2l1.51-2.21c.47-.65.92-1.31,1.35-2s1-1.5,1.5-2.26l1.31-2c.49-.76,1-1.52,1.46-2.29s.84-1.33,1.26-2,.95-1.55,1.43-2.34.82-1.32,1.21-2,.95-1.62,1.42-2.43l1.15-2,1.39-2.5c.36-.65.73-1.29,1.09-1.95l1.39-2.6,1-1.89c.48-.92.94-1.84,1.4-2.76.31-.6.62-1.19.92-1.79.5-1,1-2,1.48-3l.76-1.56c.58-1.24,1.15-2.47,1.71-3.72.16-.31.3-.62.44-.93.71-1.57,1.42-3.14,2.09-4.73l0-.08c.4-.93.78-1.86,1.17-2.78q-1.05-3.12-2.23-6.15C377.14,175.21,377.08,175.36,377,175.5Z"/><path class="cls-4" d="M226.38,405.71H118.18V68h108.2a216.4,216.4,0,0,1,47.76,5.06,170.08,170.08,0,0,1,44.41,16.61A164.41,164.41,0,0,1,344.26,107,153.83,153.83,0,0,1,380,149.43a149.51,149.51,0,0,1,8.26,16.69c8.93,21,13.47,44.7,13.47,70.27,0,32.52-7.31,61.92-21.71,87.38A155.21,155.21,0,0,1,318.55,384C292.33,398.41,261.32,405.71,226.38,405.71ZM131.79,392.1h94.59c32.63,0,61.44-6.73,85.62-20a141.71,141.71,0,0,0,56.15-55c13.24-23.39,20-50.53,20-80.67,0-23.74-4.17-45.6-12.4-65a138.46,138.46,0,0,0-7.53-15.2,140,140,0,0,0-32.58-38.67A149.81,149.81,0,0,0,312,101.61a156.42,156.42,0,0,0-40.87-15.27,203.31,203.31,0,0,0-44.76-4.72H131.79Z"/><path class="cls-5" d="M365.31,334.14a148.7,148.7,0,0,1-50,43.92,163.36,163.36,0,0,1-45.69,16.61V377.16q0-18.75,8-31.75a53.29,53.29,0,0,1,20.8-19.77,59.39,59.39,0,0,1,55.32.17A54.25,54.25,0,0,1,365.31,334.14Z"/><path class="cls-4" d="M348.9,312.09a46.55,46.55,0,0,0-23.42,6.29l-10.13,5.9,10.16,5.87a33.21,33.21,0,0,1,0,57.5l-10.16,5.86,10.13,5.9a46.8,46.8,0,1,0,23.42-87.32Zm0,80a33.48,33.48,0,0,1-6.41-.62,46.76,46.76,0,0,0,0-65.16,32.7,32.7,0,0,1,6.41-.63,33.21,33.21,0,1,1,0,66.41Z"/><path class="cls-6" d="M382.11,358.89a33.23,33.23,0,0,1-39.62,32.59,46.76,46.76,0,0,0,0-65.16,32.7,32.7,0,0,1,6.41-.63A33.24,33.24,0,0,1,382.11,358.89Z"/><path class="cls-4" d="M308.92,312.09a46.55,46.55,0,0,0-23.42,6.29l-10.13,5.9,10.16,5.87a33.22,33.22,0,0,1,0,57.5l-10.16,5.86,10.13,5.9a46.8,46.8,0,1,0,23.42-87.32Zm0,80a33.48,33.48,0,0,1-6.41-.62,46.76,46.76,0,0,0,0-65.16,32.7,32.7,0,0,1,6.41-.63,33.21,33.21,0,0,1,0,66.41Z"/><path class="cls-6" d="M342.12,358.89a33.22,33.22,0,0,1-39.61,32.59,46.76,46.76,0,0,0,0-65.16,32.7,32.7,0,0,1,6.41-.63A33.24,33.24,0,0,1,342.12,358.89Z"/><path class="cls-4" d="M268.94,312.09a46.67,46.67,0,0,0-23.43,6.29l-10.13,5.9,10.16,5.87a33.21,33.21,0,0,1,0,57.5l-10.16,5.86,10.13,5.9a46.8,46.8,0,1,0,23.43-87.32Zm0,80a33.66,33.66,0,0,1-6.42-.62,46.76,46.76,0,0,0,0-65.16,32.88,32.88,0,0,1,6.42-.63,33.21,33.21,0,0,1,0,66.41Z"/><path class="cls-6" d="M302.14,358.89a33.24,33.24,0,0,1-33.2,33.21,33.66,33.66,0,0,1-6.42-.62,46.76,46.76,0,0,0,0-65.16,32.88,32.88,0,0,1,6.42-.63A33.24,33.24,0,0,1,302.14,358.89Z"/><path class="cls-4" d="M408.29,198.37a34.6,34.6,0,0,0-13.23-13.81,38.75,38.75,0,0,0-20-5,36.87,36.87,0,0,0-19.45,5.06,36,36,0,0,0-7.69,6.29,35.45,35.45,0,0,0-5.13,7.27,38.42,38.42,0,0,0-4.49,19c0,.33,0,.64.07,1h-.09v77a13.46,13.46,0,0,1-1.68,7.11,11.08,11.08,0,0,1-4.37,4.18,12.61,12.61,0,0,1-6,1.49,12.87,12.87,0,0,1-6.19-1.53,11.6,11.6,0,0,1-4.45-4.27,12.91,12.91,0,0,1-1.68-7V257.5h-.14a35,35,0,0,0,.54-5.07,38.2,38.2,0,0,0-4.47-19,37,37,0,0,0-5.14-7.27,36,36,0,0,0-7.7-6.29,36.88,36.88,0,0,0-19.46-5.06,38.77,38.77,0,0,0-19.94,5,34.62,34.62,0,0,0-13.23,13.82,40.28,40.28,0,0,0-4.52,19.1,43,43,0,0,0,4,18.74,33.44,33.44,0,0,0,31.32,19.31,37.24,37.24,0,0,0,13.55-2.7,38.24,38.24,0,0,0,11.53-7.25v14.19a26.63,26.63,0,0,0,3.69,14.1,25.1,25.1,0,0,0,9.66,9.15,26.73,26.73,0,0,0,25,.07,24.62,24.62,0,0,0,9.62-9.09,26.81,26.81,0,0,0,3.69-14.23v-49.9a38.15,38.15,0,0,0,12,7.65,39.43,39.43,0,0,0,8,2.23,34.7,34.7,0,0,0,5.51.47,33.43,33.43,0,0,0,31.33-19.3,43,43,0,0,0,4.05-18.75A40.28,40.28,0,0,0,408.29,198.37ZM300.72,252c-.26,7.3-4.08,12.38-5.72,14.54a26.17,26.17,0,0,1-11.28,9,23.6,23.6,0,0,1-8.5,1.74,20.64,20.64,0,0,1-11.66-3.09,20.32,20.32,0,0,1-7.38-8.5,29.4,29.4,0,0,1-2.72-12.86,26.55,26.55,0,0,1,3-12.73,20.76,20.76,0,0,1,8.11-8.46,25.42,25.42,0,0,1,13-3.14,23.06,23.06,0,0,1,12.38,3.1,21.69,21.69,0,0,1,4.76,3.86,22.87,22.87,0,0,1,3.17,4.5A25.1,25.1,0,0,1,300.72,252Zm95.77-21.62a19.86,19.86,0,0,1-19.06,11.59,23.74,23.74,0,0,1-8.49-1.73,26.31,26.31,0,0,1-11.28-9c-1.63-2.18-5.46-7.26-5.73-14.56a25.35,25.35,0,0,1,2.88-12,23.43,23.43,0,0,1,3.17-4.5,21.4,21.4,0,0,1,4.75-3.86,23.13,23.13,0,0,1,12.37-3.09,25.48,25.48,0,0,1,13.06,3.13,21,21,0,0,1,8.11,8.46,26.54,26.54,0,0,1,2.93,12.73A29.53,29.53,0,0,1,396.49,230.33Z"/><path class="cls-7" d="M399.2,217.47a29.53,29.53,0,0,1-2.71,12.86,19.86,19.86,0,0,1-19.06,11.59,23.74,23.74,0,0,1-8.49-1.73,26.31,26.31,0,0,1-11.28-9c-1.63-2.18-5.46-7.26-5.73-14.56a25.35,25.35,0,0,1,2.88-12,23.43,23.43,0,0,1,3.17-4.5,21.4,21.4,0,0,1,4.75-3.86,23.13,23.13,0,0,1,12.37-3.09,25.48,25.48,0,0,1,13.06,3.13,21,21,0,0,1,8.11,8.46A26.54,26.54,0,0,1,399.2,217.47Z"/><path class="cls-7" d="M300.72,252c-.26,7.3-4.08,12.38-5.72,14.54a26.17,26.17,0,0,1-11.28,9,23.6,23.6,0,0,1-8.5,1.74,20.64,20.64,0,0,1-11.66-3.09,20.32,20.32,0,0,1-7.38-8.5,29.4,29.4,0,0,1-2.72-12.86,26.55,26.55,0,0,1,3-12.73,20.76,20.76,0,0,1,8.11-8.46,25.42,25.42,0,0,1,13-3.14,23.06,23.06,0,0,1,12.38,3.1,21.69,21.69,0,0,1,4.76,3.86,22.87,22.87,0,0,1,3.17,4.5A25.1,25.1,0,0,1,300.72,252Z"/><circle class="cls-4" cx="375.38" cy="218.91" r="13.53"/><circle class="cls-4" cx="277.28" cy="254.22" r="13.53"/></svg>